<?xml version="1.0" encoding="utf-8"?>
<!-- Generator: Adobe Illustrator 22.0.1, SVG Export Plug-In . SVG Version: 6.00 Build 0)  -->
<svg version="1.1" id="Layer_1" xmlns="http://www.w3.org/2000/svg" xmlns:xlink="http://www.w3.org/1999/xlink" x="0px" y="0px"
	 viewBox="0 0 148.5 150" style="enable-background:new 0 0 148.5 150;" xml:space="preserve">
<style type="text/css">
	.st0{opacity:0.1;}
	.st1{fill:#32C3D0;}
	.st2{opacity:0.2;}
	.st3{opacity:0.3;}
</style>
<g class="st0">
	<path class="st1" d="M75,121.2c-25.5,0-46.2-20.7-46.2-46.2c0-25.5,20.7-46.2,46.2-46.2s46.2,20.7,46.2,46.2
		C121.2,100.5,100.5,121.2,75,121.2z M75,42.8c-17.7,0-32.2,14.4-32.2,32.2c0,17.7,14.4,32.2,32.2,32.2s32.2-14.4,32.2-32.2
		C107.2,57.3,92.7,42.8,75,42.8z"/>
</g>
<g class="st2">
	<path class="st1" d="M75,121.2c-25.5,0-46.2-20.7-46.2-46.2c0-25.5,20.7-46.2,46.2-46.2s46.2,20.7,46.2,46.2c0,3.9-3.1,7-7,7
		s-7-3.1-7-7c0-17.7-14.4-32.2-32.2-32.2S42.8,57.3,42.8,75c0,17.7,14.4,32.2,32.2,32.2c3.9,0,7,3.1,7,7S78.9,121.2,75,121.2z"/>
</g>
<g class="st3">
	<path class="st1" d="M75,121.2c-25.5,0-46.2-20.7-46.2-46.2c0-25.5,20.7-46.2,46.2-46.2c3.9,0,7,3.1,7,7s-3.1,7-7,7
		c-17.7,0-32.2,14.4-32.2,32.2c0,17.7,14.4,32.2,32.2,32.2c3.9,0,7,3.1,7,7S78.9,121.2,75,121.2z"/>
</g>
</svg>
