<svg xmlns="http://www.w3.org/2000/svg" viewBox="-795.526 89 171.526 273"><defs><style>.cls-1{fill:#f8f8f9}</style></defs><g id="Group_379" data-name="Group 379" transform="translate(-820.493 166.523)"><g id="Group_380" data-name="Group 380" transform="translate(0 -110)"><g id="Group_377" data-name="Group 377" transform="translate(24.968 207.105)"><path id="Path_96" data-name="Path 96" class="cls-1" d="M14.583 152.057a12.983 12.983 0 0 0 7.41-1.933 6.786 6.786 0 0 0 2.9-5.961 7.488 7.488 0 0 0-.805-3.383 5.689 5.689 0 0 0-2.094-2.255 12.368 12.368 0 0 0-2.9-1.611c-1.128-.483-2.094-.805-3.222-1.289-1.45-.483-3.061-1.128-4.833-1.772a26.431 26.431 0 0 1-4.672-2.578 16.08 16.08 0 0 1-3.544-3.866 10.484 10.484 0 0 1-1.45-5.638 12.6 12.6 0 0 1 1.127-5.638 13.406 13.406 0 0 1 3.061-4.188 11.4 11.4 0 0 1 4.511-2.578 15.937 15.937 0 0 1 5.638-.967 32.261 32.261 0 0 1 6.444.644 18.028 18.028 0 0 1 6.927 3.222q.725.483.483.967c-.161.322-.322.483-.322.805L27.31 117.1a1.392 1.392 0 0 1-.967.483 2.29 2.29 0 0 1-.967-.322A24.045 24.045 0 0 0 20.7 115a11.706 11.706 0 0 0-4.027-.644 19.831 19.831 0 0 0-3.222.322 8.547 8.547 0 0 0-2.739 1.289 6.729 6.729 0 0 0-1.772 2.416c-.805.644-.967 1.933-.967 3.383a4.992 4.992 0 0 0 .805 2.739 8.613 8.613 0 0 0 2.094 2.094 18.365 18.365 0 0 0 3.061 1.611 29.042 29.042 0 0 0 3.383 1.289c1.772.644 3.383 1.45 5.155 2.094a20.544 20.544 0 0 1 4.511 2.578 14.727 14.727 0 0 1 3.222 3.866 12.351 12.351 0 0 1 1.289 5.8 13.9 13.9 0 0 1-1.289 5.8 11.36 11.36 0 0 1-3.383 4.35 16.553 16.553 0 0 1-5.316 2.739 22.9 22.9 0 0 1-6.766.967 20.45 20.45 0 0 1-8.377-1.611 12.3 12.3 0 0 1-5.961-4.511c-.483-.483-.322-1.128.322-1.611l2.9-2.739c.322-.322.644-.322.805-.161a11.872 11.872 0 0 1 .967.805 15.567 15.567 0 0 0 4.188 3.061 10.356 10.356 0 0 0 4.994 1.128" transform="translate(-.126 -108.4)"/><path id="Path_97" data-name="Path 97" class="cls-1" d="M57.025 144.485a13.808 13.808 0 0 1-1.128 5.8 11.708 11.708 0 0 1-3.222 4.188A12.043 12.043 0 0 1 48 157.051a17.792 17.792 0 0 1-5.961.967 23.172 23.172 0 0 1-5.961-.805 17.406 17.406 0 0 1-4.833-2.578 13.858 13.858 0 0 1-3.222-4.188 13.322 13.322 0 0 1-1.128-5.8v-22.876a12.6 12.6 0 0 1 1.128-5.638 13.859 13.859 0 0 1 3.222-4.188 12.044 12.044 0 0 1 4.672-2.578 16.851 16.851 0 0 1 5.8-.967 21.924 21.924 0 0 1 5.8.805 17.407 17.407 0 0 1 4.833 2.578 11.708 11.708 0 0 1 3.222 4.188 12.86 12.86 0 0 1 1.128 5.8v22.714zm-6.6-22.715a7.775 7.775 0 0 0-2.255-5.638 8.4 8.4 0 0 0-6.122-2.255 8.4 8.4 0 0 0-6.122 2.255 7.775 7.775 0 0 0-2.255 5.638v22.553a7.79 7.79 0 0 0 2.094 5.8 8.324 8.324 0 0 0 6.122 2.094A8.324 8.324 0 0 0 48 150.124a7.89 7.89 0 0 0 2.255-5.8v-22.553z" transform="translate(16.232 -108.4)"/><path id="Path_98" data-name="Path 98" class="cls-1" d="M57.811 108.7a2.082 2.082 0 0 1 1.289.322c.322.161.483.483.805.967l18.365 33.83a.158.158 0 0 0 .161.161v-34.475c0-.644.322-.805.805-.805h4.511c.644 0 .967.322.967.805v46.235c0 .644-.161 1.128-.483 1.289a2.289 2.289 0 0 1-.967.322H80.2a2.5 2.5 0 0 1-1.289-.322c-.322-.161-.483-.483-.805-.967l-18.365-33.83c-.161-.161-.161-.161-.161 0v33.991c0 .644-.322.967-.805.967h-4.508c-.644 0-.967-.322-.967-.805v-45.752a3.217 3.217 0 0 1 .322-1.45q.242-.483 1.45-.483z" transform="translate(32.362 -108.217)"/><path id="Path_99" data-name="Path 99" class="cls-1" d="M121.091 157.351h-4.511c-.644 0-.805-.322-.805-.805v-30.609c0-.161 0-.161-.161-.161a.158.158 0 0 0-.161.161l-3.383 9.182-7.57 19.654a2.224 2.224 0 0 0-.483.644.974.974 0 0 1-.967.483h-3.063c-.483 0-.805 0-.967-.161a3.515 3.515 0 0 1-.644-.805l-7.249-19.17-3.383-9.664c-.161-.161-.161-.161-.161 0v30.286c0 .644-.322.967-.805.967h-4.511c-.644 0-.967-.322-.967-.805v-46.237a1.282 1.282 0 0 1 1.45-1.45h2.9c.805 0 1.128 0 1.289.161a9.543 9.543 0 0 1 .644.967l10.471 28.191 3.061 8.7c.322.483.483.483.644 0 .483-1.45.967-2.9 1.611-4.511a37.17 37.17 0 0 1 1.611-4.511l10.471-28.192a1.9 1.9 0 0 1 .805-.805c.161-.161.644-.161 1.128-.161h3.222a1.541 1.541 0 0 1 1.128.322 2.29 2.29 0 0 1 .322.967v46.234c0 .806-.322 1.128-.967 1.128" transform="translate(49.468 -108.217)"/></g><path id="Path_100" data-name="Path 100" class="cls-1" d="M142.4 64.76A64.834 64.834 0 0 0 77.8 0a64.761 64.761 0 0 0 0 129.521 64.73 64.73 0 0 0 64.6-64.761zM129.994 90.7a17.75 17.75 0 0 0 .322-2.9 13.471 13.471 0 0 0-3.705-9.182 6.47 6.47 0 0 0 8.377-3.383 64.287 64.287 0 0 1-4.994 15.465zm-4.188-18.2a3.222 3.222 0 1 1 3.222 3.222 3.231 3.231 0 0 1-3.222-3.229zm10.149-7.733a50.669 50.669 0 0 1-.483 7.088 6.485 6.485 0 0 0-6.444-5.961 5.956 5.956 0 0 0-3.383.967 27.377 27.377 0 0 0 6.444-17.561 28.934 28.934 0 0 0-1.611-9.182 58.055 58.055 0 0 1 5.477 24.642zM104.7 71.849a22.392 22.392 0 1 1 22.392-22.392A22.448 22.448 0 0 1 104.7 71.849zm-.8 16.27a27.4 27.4 0 0 0-9.344-13.371 27.394 27.394 0 0 0 10.31 2.094 37.5 37.5 0 0 0 6.122-.644A13.251 13.251 0 0 0 103.9 87.8zM44.614 76.037a25.476 25.476 0 0 0 6.122.644 27.394 27.394 0 0 0 10.31-2.094A27.087 27.087 0 0 0 51.7 87.958v-.483a13.194 13.194 0 0 0-7.086-11.438zm-12.4-6.6a23.744 23.744 0 0 0 8.055 5.155c-.644 0-1.128-.161-1.772-.161a12.286 12.286 0 0 0-6.766 1.933 6.555 6.555 0 0 0 1.289-3.866 6.169 6.169 0 0 0-.811-3.066zm6.283 9.988a8.377 8.377 0 1 1-8.382 8.375 8.32 8.32 0 0 1 8.377-8.38zm12.077 13.366a26.344 26.344 0 0 0-.322 3.544 28.231 28.231 0 0 0 .805 6.444 6.473 6.473 0 0 0-5.638-3.544 2.043 2.043 0 0 0-.967.161 12.881 12.881 0 0 0 6.122-6.605zM77.8 73.943A22.473 22.473 0 1 1 55.407 96.5 22.448 22.448 0 0 1 77.8 73.943zm0-46.234a8.377 8.377 0 1 1 8.377-8.377 8.32 8.32 0 0 1-8.377 8.376zm0 4.994a13.52 13.52 0 0 0 7.088-2.094A27.008 27.008 0 0 0 77.8 44.785a27.008 27.008 0 0 0-7.088-14.176A13.52 13.52 0 0 0 77.8 32.7zm0 21.1A27.132 27.132 0 0 0 88.11 71.04a30.928 30.928 0 0 0-10.31-2.091 27.393 27.393 0 0 0-10.31 2.094A27.829 27.829 0 0 0 77.8 53.806zm27.064 38.985a12.881 12.881 0 0 0 6.122 6.6c-.322 0-.644-.161-.967-.161a6.286 6.286 0 0 0-5.638 3.544 28.23 28.23 0 0 0 .805-6.444 26.343 26.343 0 0 0-.323-3.536zm3.866-5.155a8.377 8.377 0 1 1 8.377 8.377 8.32 8.32 0 0 1-8.377-8.374zm15.143-11.277a13.786 13.786 0 0 0-6.766-1.933 6.608 6.608 0 0 0-1.772.161 29.909 29.909 0 0 0 8.055-5.155 6.663 6.663 0 0 0-.805 3.061 6.555 6.555 0 0 0 1.288 3.869zM91.009 18.848a6.519 6.519 0 0 0 6.122 4.188h.322a25.766 25.766 0 0 0-9.182 4.511 13.41 13.41 0 0 0 2.9-8.216c-.001-.161-.162-.322-.162-.483zm34.636 12.727a27.238 27.238 0 0 0-20.945-9.666 25.011 25.011 0 0 0-4.994.483 6.422 6.422 0 0 0 3.866-5.961 6.262 6.262 0 0 0-2.416-4.994 58.7 58.7 0 0 1 24.489 20.138zm-25.292-15.143a3.222 3.222 0 1 1-3.222-3.222 3.231 3.231 0 0 1 3.222 3.222zm-2.578-6.444h-.644a6.374 6.374 0 0 0-6.444 5.961 12.988 12.988 0 0 0-8.86-9.349 58.624 58.624 0 0 1 15.948 3.388zm-24-3.383a13.567 13.567 0 0 0-8.86 9.344 6.485 6.485 0 0 0-6.444-5.961h-.644A57.365 57.365 0 0 1 73.772 6.6zm-6.447 20.942a24.484 24.484 0 0 0-9.182-4.511h.322a6.684 6.684 0 0 0 6.122-4.188v.483a12.359 12.359 0 0 0 2.738 8.216zm-8.86-14.337a3.222 3.222 0 1 1-3.222 3.222 3.132 3.132 0 0 1 3.222-3.222zm-4.188-1.772a6.505 6.505 0 0 0-2.416 4.994 6.422 6.422 0 0 0 3.866 5.961 25.012 25.012 0 0 0-4.994-.483 27.488 27.488 0 0 0-20.942 9.666 59.715 59.715 0 0 1 24.485-20.138zM50.735 26.9a22.392 22.392 0 1 1-22.392 22.4 22.448 22.448 0 0 1 22.392-22.4zM19.483 64.76a58.055 58.055 0 0 1 5.477-24.647 28.934 28.934 0 0 0-1.611 9.187 26.733 26.733 0 0 0 6.444 17.559 5.956 5.956 0 0 0-3.383-.967 6.485 6.485 0 0 0-6.444 5.961 50.669 50.669 0 0 1-.483-7.093zm10.149 7.733a3.222 3.222 0 1 1-3.222-3.222 3.231 3.231 0 0 1 3.222 3.222zM25.6 90.7a57.46 57.46 0 0 1-5.155-15.626 6.6 6.6 0 0 0 5.961 3.866 5.885 5.885 0 0 0 2.416-.483 13.471 13.471 0 0 0-3.705 9.182c.165 1.125.326 2.091.483 3.061zm13.532 14.982a6.187 6.187 0 0 0 1.45 4.027 61.675 61.675 0 0 1-11.111-12.246 12.936 12.936 0 0 0 9.021 3.544 12.563 12.563 0 0 0 3.544-.483 5.761 5.761 0 0 0-2.9 5.155zm6.444-3.061a3.061 3.061 0 1 1-3.061 3.061 2.962 2.962 0 0 1 3.065-3.064zm-2.739 8.7a5.3 5.3 0 0 0 2.739.644 6.29 6.29 0 0 0 6.283-6.283v-.644a27.3 27.3 0 0 0 18.043 17.559 57.207 57.207 0 0 1-27.06-11.28zm42.851 11.277a27.3 27.3 0 0 0 18.043-17.559v.644a6.29 6.29 0 0 0 6.283 6.283 7.589 7.589 0 0 0 2.739-.644 57.893 57.893 0 0 1-27.06 11.272zm24.325-13.854a3.061 3.061 0 1 1 3.061-3.061 3.169 3.169 0 0 1-3.056 3.056zm4.833.967a5.89 5.89 0 0 0 1.45-4.027 6.477 6.477 0 0 0-2.739-5.316 12.563 12.563 0 0 0 3.544.483 12.936 12.936 0 0 0 9.021-3.544 59.1 59.1 0 0 1-11.271 12.399z" transform="translate(32.83 32.477)"/></g><text id="w_a_l_l_e_t" data-name="w a l l e t" transform="translate(26.493 164.477)" font-size="20" font-family="Roboto-Regular,Roboto" fill="#f8f8f9"><tspan x="45.75" y="19">w a l l e t</tspan></text></g></svg>