<?xml version="1.0" encoding="utf-8"?>
<!-- Generator: Adobe Illustrator 21.1.0, SVG Export Plug-In . SVG Version: 6.00 Build 0)  -->
<svg version="1.1" id="Layer_1" xmlns="http://www.w3.org/2000/svg" xmlns:xlink="http://www.w3.org/1999/xlink" x="0px" y="0px"
	 viewBox="0 0 422.5 544.5" style="enable-background:new 0 0 422.5 544.5;" xml:space="preserve">
<style type="text/css">
	.st0{fill:#F8F8F9;}
</style>
<path class="st0" d="M82.3,485.1c1.9,3.6,2.9,8.3,2.9,13.8c0,5.1-1,9.7-2.9,13.7c-1.9,4-4.7,7.5-8.1,10.3c-3.5,2.8-7.7,5-12.5,6.5
	c-4.8,1.5-10.1,2.3-15.8,2.3c-7,0-13.7-1.2-19.7-3.6c-6.1-2.4-10.9-6-14.3-10.7c-0.6-0.6-0.8-1.3-0.8-2c0.1-0.8,0.6-1.6,1.6-2.4
	l6.8-6.2c0.9-0.8,1.8-0.9,2.5-0.5c0.6,0.3,1.3,0.9,2.2,1.8c2.8,3,6,5.3,9.8,6.9c3.7,1.6,7.7,2.4,11.7,2.4c6.8,0,12.5-1.5,16.8-4.6
	c4.2-3,6.4-7.6,6.4-13.6c0-3-0.6-5.5-1.9-7.6c-1.2-2.1-2.9-3.8-4.8-5.3c-2-1.4-4.2-2.7-6.7-3.7c-2.5-1-5-2-7.4-2.8
	c-3.6-1.2-7.4-2.7-11.2-4.2c-3.9-1.6-7.6-3.7-10.9-6.1c-3.3-2.5-6-5.6-8.2-9.2c-2.2-3.7-3.3-8.2-3.3-13.4c0-5,0.9-9.4,2.6-13.3
	c1.7-3.9,4.2-7.3,7.2-10c3-2.7,6.6-4.8,10.7-6.2c4.1-1.4,8.5-2.1,13.2-2.1c4.4,0,9.5,0.6,15,1.7c5.6,1.1,11.1,3.7,16.4,7.6
	c1.7,1.3,1.6,2.3,1.2,2.9c-0.4,0.7-0.7,1.2-0.9,1.7l-4.4,7c-0.9,1.3-2,1.4-2.7,1.3c-0.9-0.1-1.8-0.5-2.6-1
	c-4.1-2.4-7.8-4.2-10.9-5.2c-3.1-1-6.3-1.5-9.4-1.5c-2.6,0-5.2,0.3-7.5,0.9c-2.3,0.6-4.4,1.6-6.1,2.9c-1.7,1.3-3.1,3.1-4.1,5.3
	c-1,2.2-1.5,5-1.5,8.3c0,2.3,0.6,4.4,1.8,6.1c1.3,1.8,2.9,3.4,4.9,4.7c2,1.4,4.4,2.6,6.9,3.7c2.5,1.1,5.1,2.1,7.7,3.1
	c3.8,1.5,7.9,3.1,12,4.9c4,1.7,7.5,3.8,10.6,6.2C77.8,478.5,80.4,481.5,82.3,485.1z M180.3,433.2c1.9,4,2.8,8.5,2.8,13.6v53.3
	c0,5.1-0.9,9.6-2.7,13.5c-1.8,3.9-4.3,7.3-7.5,10c-3.2,2.7-6.9,4.8-11.2,6.2c-4.3,1.4-9,2.1-14,2.1c-5.1,0-9.8-0.7-14-2
	c-4.3-1.4-8.1-3.4-11.3-6.1c-3.2-2.7-5.8-6-7.6-10c-1.8-4-2.7-8.6-2.7-13.8v-53.3c0-5,0.9-9.4,2.8-13.3c1.9-3.9,4.4-7.3,7.6-10
	c3.2-2.7,6.9-4.8,11.2-6.2c4.2-1.4,8.9-2.1,13.8-2.1c4.8,0,9.4,0.7,13.7,2c4.3,1.4,8.1,3.4,11.4,6.1
	C175.8,425.8,178.4,429.2,180.3,433.2z M161.5,434.5c-3.4-3.3-8.1-5-13.8-5c-5.8,0-10.5,1.7-14,5.1c-3.4,3.4-5.2,7.6-5.2,12.6v52.5
	c0,5.4,1.6,9.7,4.9,13c3.2,3.3,8,4.9,14.1,4.9c6,0,10.7-1.7,14.1-4.9c3.4-3.2,5.1-7.6,5.1-13v-52.5
	C166.7,442.1,164.9,437.8,161.5,434.5z M283,416.5h-10.4c-1.6,0-2.5,0.9-2.5,2.5l0,78.8l-42.4-78.1c-0.7-0.9-1.3-1.6-1.9-2.2
	c-0.7-0.6-1.8-1-3.5-1h-6.6c-1.9,0-3.1,0.4-3.6,1.3c-0.5,0.8-0.7,2-0.7,3.7v106.7c0,1.6,1,2.5,2.7,2.5h10.5c1.6,0,2.5-1,2.5-2.7
	l0-78.2l42.4,77.9c0.5,1,1.2,1.8,1.9,2.3c0.8,0.5,1.9,0.7,3.3,0.7h7.1c0.8,0,1.7-0.2,2.6-0.7c1-0.5,1.5-1.7,1.5-3.5V418.9
	C285.8,418,285.4,416.5,283,416.5z M411.1,417.7c-0.5-0.8-1.6-1.1-3.1-1.1h-7.4c-1.3,0-2.3,0.2-3,0.6c-0.6,0.4-1.2,1.1-1.9,2.2
	L371.3,485c-1.2,3.3-2.4,6.8-3.6,10.4c-1.1,3.6-2.3,7-3.5,10.3c-0.2,0.3-0.3,0.3-0.3,0.4c0,0-0.2,0-0.5-0.5l-6.9-20.2l-24.6-65.8
	c-0.7-1.3-1.2-2.1-1.6-2.5c-0.3-0.3-1-0.6-3.5-0.6h-7.2c-2.5,0-3.8,1.4-3.8,4v107.8c0,1.6,1,2.5,2.7,2.5h10.4c1.6,0,2.5-1,2.5-2.7
	l0-69.3l7.5,21.2l16.8,44.4c0.4,1.1,0.9,1.8,1.6,2.2c0.6,0.3,1.5,0.5,2.5,0.5h7.1c1.3,0,2.2-0.4,2.8-1.2c0.5-0.7,0.9-1.2,1.1-1.6
	l17.8-45.8l7.5-20.8v70.6c0,1.6,0.9,2.5,2.5,2.5h10.6c1.6,0,2.5-1,2.5-2.7V420.4C411.8,419.3,411.6,418.4,411.1,417.7z M211.5,311.7
	c-83.3-0.2-151-68.1-151-151.4c0-83.2,67.7-151.1,151-151.4c83.3,0.2,151,68.1,151,151.4C362.5,243.6,294.7,311.5,211.5,311.7z
	 M296.9,244.3c3.1,2.9,4.9,6.9,4.9,11.2c0,2.3-0.5,4.6-1.6,6.7c7.9-7,15-14.8,21.1-23.3C314.5,244,305.7,246.1,296.9,244.3z
	 M101.6,238.9c6.1,8.6,13.2,16.4,21.1,23.3c-1-2.1-1.6-4.3-1.6-6.7c0-4.3,1.8-8.4,4.9-11.2C117.3,246.1,108.5,244,101.6,238.9z
	 M88.7,213.7c0-7.4,2.6-14.5,7.4-20.2c-1.3,0.4-2.7,0.6-4.1,0.6c-5.2,0-10-2.6-12.9-6.7c2.1,10.3,5.4,20.3,9.8,29.8
	C88.8,216,88.7,214.8,88.7,213.7z M98,163.8c-8.8-11.3-13.6-25.2-13.6-39.5c0-4.6,0.5-9.2,1.5-13.8c-6.3,15.9-9.5,32.6-9.5,49.8
	c0,4.4,0.2,8.8,0.7,13.3c2-6.5,7.9-11,14.9-11C94.1,162.6,96.1,163,98,163.8z M85,178.3c0,3.9,3.2,7,7,7c3.9,0,7-3.2,7-7
	c0-3.9-3.2-7-7-7C88.2,171.3,85,174.4,85,178.3z M318,77.2c-13.1-16.9-30.1-30.4-49.4-39.5c2.4,2.8,3.7,6.4,3.7,10.1
	c0,5.2-2.6,10-6.8,12.9c3-0.4,5.9-0.6,8.8-0.6C290.6,60.1,306.1,66.3,318,77.2z M316.2,173c-4.4,3.8-9.2,7-14.3,9.4
	c0.4,0,0.7,0,1.1,0c4.9,0,9.8,1.2,14.2,3.5c-1.3-2.3-2-4.9-2-7.5C315.2,176.5,315.6,174.7,316.2,173z M253.1,185
	c8.5,7.2,14.9,16.4,18.7,26.7c0.6-9.8,5.8-18.8,14-24.2C274.4,189.7,263.5,188.7,253.1,185z M225.5,82.6c-4.4,2.2-9.1,3.3-14,3.3h0
	c-4.9,0-9.7-1.1-14-3.3c7,8.2,11.8,17.9,14,28.5C213.7,100.6,218.5,90.8,225.5,82.6z M211.4,169.7L211.4,169.7l0.1,0
	c7.3,0,14.4,1.2,21.2,3.6c-10.9-9.3-18.3-21.8-21.2-35.8c-2.9,14-10.3,26.5-21.2,35.8C197.1,170.9,204.2,169.7,211.4,169.7z
	 M151.2,211.7c3.8-10.3,10.2-19.5,18.7-26.7c-10.4,3.7-21.4,4.6-32.7,2.5C145.4,193,150.6,201.9,151.2,211.7z M105.8,185.9
	c4.4-2.3,9.3-3.5,14.2-3.5c0.4,0,0.7,0,1.1,0c-5.1-2.4-9.9-5.6-14.3-9.4c0.6,1.7,1,3.5,1,5.3C107.8,181,107.1,183.5,105.8,185.9z
	 M120,232.6c10.4,0,18.9-8.5,18.9-18.9c0-10.4-8.5-18.9-18.9-18.9c-10.4,0-18.9,8.5-18.9,18.9C101.1,224.1,109.6,232.6,120,232.6z
	 M136.4,240.2C136.4,240.2,136.4,240.2,136.4,240.2c4.8,0,9.2,2.2,12.1,6c-0.8-4.2-1.2-8.3-1.2-12.3c0-1.7,0.1-3.5,0.3-5.5
	C144.9,233.3,141.1,237.3,136.4,240.2z M286.6,240.2c-4.7-2.9-8.5-7-11.1-11.8c0.2,2,0.3,3.7,0.3,5.5c0,4-0.4,8.1-1.2,12.3
	C277.4,242.5,281.8,240.2,286.6,240.2C286.6,240.2,286.6,240.2,286.6,240.2z M284.1,213.7c0,10.4,8.5,18.9,18.9,18.9
	c10.4,0,18.9-8.5,18.9-18.9c0-10.4-8.5-18.9-18.9-18.9C292.6,194.8,284.1,203.2,284.1,213.7z M326.1,124.4
	c0-28.6-23.2-51.8-51.8-51.8c-28.6,0-51.8,23.2-51.8,51.8c0,28.6,23.2,51.8,51.8,51.8C302.9,176.2,326.1,152.9,326.1,124.4z
	 M238.1,71.4c5-3.5,10.5-6.1,16.3-8c-4.8-0.7-8.9-3.5-11.3-7.7C242.8,61.3,241.1,66.7,238.1,71.4z M263.7,47.8c0-3.9-3.2-7-7-7
	c-3.9,0-7,3.2-7,7c0,3.9,3.2,7,7,7C260.5,54.9,263.7,51.7,263.7,47.8z M255,32.2c-9.8-3.4-20.1-5.6-30.6-6.6
	c8,3.6,14.2,10.5,17,18.8C242.9,37.9,248.4,32.9,255,32.2z M230.6,54.4c0-10.5-8.6-19.1-19.1-19.1c-10.5,0-19.1,8.6-19.1,19.1
	c0,10.5,8.6,19.1,19.1,19.1C222,73.5,230.6,64.9,230.6,54.4z M180,55.6c-2.4,4.2-6.5,7-11.3,7.7c5.8,1.9,11.2,4.6,16.3,8
	C181.9,66.7,180.2,61.3,180,55.6z M198.6,25.6c-10.5,1-20.8,3.2-30.6,6.6c6.6,0.7,12.1,5.6,13.6,12.1
	C184.4,36,190.7,29.2,198.6,25.6z M173.4,47.8c0-3.9-3.2-7-7-7c-3.9,0-7,3.2-7,7c0,3.9,3.2,7,7,7C170.3,54.9,173.4,51.7,173.4,47.8z
	 M154.4,37.7c-19.3,9.1-36.3,22.6-49.4,39.5c11.8-11,27.4-17.1,43.6-17.1c2.9,0,5.8,0.2,8.8,0.6c-4.2-2.9-6.8-7.7-6.8-12.9
	C150.7,44.1,152,40.6,154.4,37.7z M96.9,124.4c0,28.6,23.2,51.8,51.8,51.8c28.6,0,51.8-23.2,51.8-51.8c0-28.6-23.2-51.8-51.8-51.8
	C120.1,72.6,96.9,95.8,96.9,124.4z M129.8,255.5c0,3.7,3,6.6,6.6,6.6s6.6-3,6.6-6.6c0-3.7-3-6.6-6.6-6.6S129.8,251.9,129.8,255.5z
	 M133.1,270.4c16.3,11.7,35,19.6,54.6,23.2c-16.5-6.6-29.6-19.8-36-36.4c-0.8,7.7-7.3,13.6-15.2,13.6
	C135.3,270.8,134.2,270.7,133.1,270.4z M159.7,233.9c0,28.5,23.2,51.8,51.8,51.8c28.6,0,51.8-23.2,51.8-51.8s-23.2-51.8-51.8-51.8
	C182.9,182.1,159.7,205.4,159.7,233.9z M235.3,293.6c19.6-3.6,38.4-11.5,54.6-23.2c-1.1,0.3-2.2,0.4-3.4,0.4
	c-7.9,0-14.4-6-15.2-13.6C264.9,273.8,251.8,287,235.3,293.6z M293.2,255.5c0-3.7-3-6.6-6.6-6.6c-3.7,0-6.6,3-6.6,6.6
	c0,3.7,3,6.6,6.6,6.6C290.2,262.2,293.2,259.2,293.2,255.5z M330.9,162.6c7,0,13,4.6,14.9,11c0.5-4.6,0.7-9,0.7-13.3
	c0-17.2-3.2-33.9-9.5-49.8c1,4.6,1.5,9.2,1.5,13.8c0,14.3-4.8,28.2-13.6,39.5C326.9,163,328.9,162.6,330.9,162.6z M334.3,213.7
	c0,1.1-0.1,2.3-0.2,3.5c4.4-9.5,7.7-19.5,9.8-29.8c-2.9,4.2-7.7,6.7-12.9,6.7c-1.4,0-2.8-0.2-4.1-0.6
	C331.6,199.1,334.3,206.2,334.3,213.7z M323.9,178.3c0,3.9,3.2,7,7,7c3.9,0,7-3.2,7-7c0-3.9-3.2-7-7-7
	C327.1,171.3,323.9,174.4,323.9,178.3z"/>
</svg>
