<?xml version="1.0" encoding="utf-8"?>
<!-- Generator: Adobe Illustrator 22.0.1, SVG Export Plug-In . SVG Version: 6.00 Build 0)  -->
<svg version="1.1" id="Layer_1" xmlns="http://www.w3.org/2000/svg" xmlns:xlink="http://www.w3.org/1999/xlink" x="0px" y="0px"
	 viewBox="0 0 171.5 273" style="enable-background:new 0 0 171.5 273;" xml:space="preserve">
<style type="text/css">
	.st0{fill:#F8F8F9;}
	.st1{enable-background:new    ;}
</style>
<g id="Group_379" transform="translate(-820.493 166.523)">
	<g id="Group_380" transform="translate(0 -110)">
		<g id="Group_377" transform="translate(24.968 207.105)">
			<path id="Path_96" class="st0" d="M810-45.3c2.6,0.1,5.2-0.6,7.4-1.9c1.9-1.3,3-3.6,2.9-6c0-1.2-0.3-2.3-0.8-3.4
				c-0.5-0.9-1.2-1.7-2.1-2.3c-0.9-0.7-1.9-1.2-2.9-1.6c-1.1-0.5-2.1-0.8-3.2-1.3c-1.4-0.5-3.1-1.1-4.8-1.8
				c-1.6-0.7-3.2-1.6-4.7-2.6c-1.4-1.1-2.6-2.4-3.5-3.9c-1-1.7-1.5-3.7-1.5-5.6c-0.1-1.9,0.3-3.9,1.1-5.6c0.7-1.6,1.8-3,3.1-4.2
				c1.3-1.2,2.8-2.1,4.5-2.6c1.8-0.7,3.7-1,5.6-1c2.2,0,4.3,0.2,6.4,0.6c2.5,0.6,4.9,1.7,6.9,3.2c0.5,0.3,0.6,0.6,0.5,1
				c-0.2,0.3-0.3,0.5-0.3,0.8l-1.9,3.1c-0.2,0.3-0.6,0.5-1,0.5c-0.3,0-0.7-0.1-1-0.3c-1.5-0.9-3-1.7-4.7-2.3c-1.3-0.4-2.7-0.7-4-0.6
				c-1.1,0-2.2,0.1-3.2,0.3c-1,0.3-1.9,0.7-2.7,1.3c-0.8,0.7-1.4,1.5-1.8,2.4c-0.8,0.6-1,1.9-1,3.4c0,1,0.3,1.9,0.8,2.7
				c0.6,0.8,1.3,1.5,2.1,2.1c1,0.6,2,1.2,3.1,1.6c1.1,0.5,2.2,0.9,3.4,1.3c1.8,0.6,3.4,1.4,5.2,2.1c1.6,0.7,3.1,1.5,4.5,2.6
				c1.3,1.1,2.4,2.4,3.2,3.9c0.9,1.8,1.3,3.8,1.3,5.8c0,2-0.4,4-1.3,5.8c-0.8,1.7-1.9,3.2-3.4,4.4c-1.6,1.2-3.4,2.2-5.3,2.7
				c-2.2,0.7-4.5,1-6.8,1c-2.9,0.1-5.7-0.5-8.4-1.6c-2.4-0.8-4.5-2.4-6-4.5c-0.5-0.5-0.3-1.1,0.3-1.6l2.9-2.7
				c0.3-0.3,0.6-0.3,0.8-0.2c0.3,0.3,0.7,0.5,1,0.8c1.2,1.2,2.6,2.3,4.2,3.1C806.5-45.7,808.2-45.3,810-45.3"/>
			<path id="Path_97" class="st0" d="M868.8-52.9c0,2-0.3,4-1.1,5.8c-0.7,1.6-1.8,3.1-3.2,4.2c-1.3,1.2-2.9,2.1-4.7,2.6
				c-1.9,0.7-3.9,1-6,1c-2,0-4-0.3-6-0.8c-1.7-0.6-3.4-1.5-4.8-2.6c-1.3-1.2-2.4-2.6-3.2-4.2c-0.8-1.8-1.2-3.8-1.1-5.8v-22.9
				c-0.1-1.9,0.3-3.9,1.1-5.6c0.8-1.6,1.9-3,3.2-4.2c1.3-1.2,2.9-2.1,4.7-2.6c1.9-0.7,3.8-1,5.8-1c2,0,3.9,0.3,5.8,0.8
				c1.7,0.6,3.4,1.5,4.8,2.6c1.4,1.1,2.5,2.6,3.2,4.2c0.8,1.8,1.2,3.8,1.1,5.8v22.7H868.8z M862.2-75.6c0-2.1-0.8-4.1-2.3-5.6
				c-1.7-1.5-3.9-2.4-6.1-2.3c-2.3-0.1-4.5,0.7-6.1,2.3c-1.5,1.5-2.3,3.5-2.3,5.6v22.6c-0.1,2.1,0.6,4.2,2.1,5.8
				c1.7,1.5,3.9,2.3,6.1,2.1c2.2,0.2,4.4-0.6,6.1-2.1c1.5-1.5,2.3-3.6,2.3-5.8v-22.6L862.2-75.6z"/>
			<path id="Path_98" class="st0" d="M885.7-88.5c0.5,0,0.9,0.1,1.3,0.3c0.3,0.2,0.5,0.5,0.8,1l18.4,33.8c0,0.1,0.1,0.2,0.2,0.2
				c0,0,0,0,0,0v-34.5c0-0.6,0.3-0.8,0.8-0.8h4.5c0.6,0,1,0.3,1,0.8v46.2c0,0.6-0.2,1.1-0.5,1.3c-0.3,0.2-0.6,0.3-1,0.3h-3.1
				c-0.5,0-0.9-0.1-1.3-0.3c-0.3-0.2-0.5-0.5-0.8-1L887.6-75c-0.2-0.2-0.2-0.2-0.2,0v34c0,0.6-0.3,1-0.8,1h-4.5c-0.6,0-1-0.3-1-0.8
				v-45.8c0-0.5,0.1-1,0.3-1.4c0.2-0.3,0.6-0.5,1.5-0.5L885.7-88.5z"/>
			<path id="Path_99" class="st0" d="M966.1-39.9h-4.5c-0.6,0-0.8-0.3-0.8-0.8v-30.6c0-0.2,0-0.2-0.2-0.2c-0.1,0-0.2,0.1-0.2,0.2
				c0,0,0,0,0,0l-3.4,9.2l-7.6,19.7c-0.2,0.2-0.4,0.4-0.5,0.6c-0.2,0.3-0.6,0.5-1,0.5H945c-0.5,0-0.8,0-1-0.2
				c-0.3-0.2-0.5-0.5-0.6-0.8l-7.2-19.2l-3.4-9.7c-0.2-0.2-0.2-0.2-0.2,0v30.3c0,0.6-0.3,1-0.8,1h-4.5c-0.6,0-1-0.3-1-0.8v-46.2
				c-0.1-0.7,0.4-1.4,1.1-1.4c0.1,0,0.2,0,0.4,0h2.9c0.8,0,1.1,0,1.3,0.2c0.2,0.3,0.4,0.6,0.6,1L943-59l3.1,8.7
				c0.3,0.5,0.5,0.5,0.6,0c0.5-1.4,1-2.9,1.6-4.5c0.4-1.5,1-3,1.6-4.5l10.5-28.2c0.2-0.3,0.5-0.6,0.8-0.8c0.2-0.2,0.6-0.2,1.1-0.2
				h3.2c0.4,0,0.8,0.1,1.1,0.3c0.2,0.3,0.3,0.6,0.3,1V-41C967.1-40.2,966.7-39.9,966.1-39.9"/>
		</g>
		<path id="Path_100" class="st0" d="M970.8,8.2c0-35.7-28.9-64.6-64.6-64.8l0,0c-35.8,0.1-64.6,29.2-64.5,65
			c0.1,35.6,28.9,64.4,64.5,64.5l0,0C941.9,72.9,970.8,43.9,970.8,8.2z M958.4,34.2c0.2-1,0.3-1.9,0.3-2.9c0-3.4-1.3-6.7-3.7-9.2
			c3.2,1.3,7-0.2,8.4-3.4C962.3,24.1,960.7,29.3,958.4,34.2z M954.2,16c0-1.8,1.4-3.2,3.2-3.2c1.8,0,3.2,1.4,3.2,3.2
			s-1.4,3.2-3.2,3.2C955.6,19.2,954.2,17.8,954.2,16L954.2,16z M964.3,8.2c0,2.4-0.2,4.7-0.5,7.1c-0.3-3.4-3.1-6-6.4-6
			c-1.2,0-2.4,0.3-3.4,1c4.1-4.9,6.4-11.1,6.4-17.6c0-3.1-0.6-6.2-1.6-9.2C962.4-8.7,964.3-0.3,964.3,8.2L964.3,8.2z M933.1,15.3
			c-12.4,0-22.4-10-22.4-22.4s10-22.4,22.4-22.4c12.4,0,22.4,10,22.4,22.4v0C955.4,5.3,945.4,15.3,933.1,15.3z M932.3,31.6
			c-1.7-5.3-4.9-10-9.3-13.4c3.3,1.4,6.8,2.1,10.3,2.1c2.1,0,4.1-0.3,6.1-0.6c-4.3,2.3-7,6.7-7.1,11.6V31.6z M873,19.5
			c2,0.5,4.1,0.7,6.1,0.6c3.5,0,7-0.7,10.3-2.1c-4.4,3.4-7.7,8.1-9.3,13.4V31C880,26.1,877.2,21.7,873,19.5z M860.6,12.9
			c2.3,2.2,5,4,8.1,5.2c-0.6,0-1.1-0.2-1.8-0.2c-2.4,0-4.7,0.6-6.8,1.9c0.8-1.1,1.3-2.5,1.3-3.9C861.4,14.9,861.1,13.8,860.6,12.9
			L860.6,12.9z M866.9,22.9c4.6,0,8.4,3.8,8.4,8.4c0,4.6-3.8,8.4-8.4,8.4c-4.6,0-8.4-3.8-8.4-8.4c0-4.6,3.7-8.3,8.3-8.4
			C866.8,22.9,866.8,22.9,866.9,22.9L866.9,22.9z M878.9,36.3c-0.2,1.2-0.3,2.4-0.3,3.5c0,2.2,0.3,4.3,0.8,6.4
			c-1.1-2.1-3.2-3.5-5.6-3.5c-0.3,0-0.7,0-1,0.2C875.6,41.5,877.8,39.1,878.9,36.3z M906.2,17.4c12.4,0,22.5,10,22.6,22.4
			c0,12.4-10,22.5-22.4,22.6c-12.4,0-22.5-10-22.6-22.4C883.7,27.6,893.7,17.5,906.2,17.4C906.1,17.4,906.1,17.4,906.2,17.4z
			 M906.2-28.8c-4.6,0-8.4-3.8-8.4-8.4s3.8-8.4,8.4-8.4c4.6,0,8.4,3.8,8.4,8.4v0c0,4.6-3.7,8.3-8.3,8.4
			C906.2-28.8,906.2-28.8,906.2-28.8L906.2-28.8z M906.2-23.8L906.2-23.8c2.5,0,5-0.8,7.1-2.1c-3.7,3.9-6.2,8.8-7.1,14.2
			c-0.9-5.3-3.4-10.3-7.1-14.2C901.2-24.6,903.6-23.8,906.2-23.8L906.2-23.8z M906.2-2.7c1.1,6.9,4.8,13,10.3,17.2
			c-3.3-1.3-6.8-2-10.3-2.1l0,0c-3.5,0-7,0.7-10.3,2.1C901.3,10.3,905,4.1,906.2-2.7L906.2-2.7z M933.2,36.3
			c1.2,2.9,3.4,5.2,6.1,6.6c-0.3,0-0.6-0.2-1-0.2c-2.4,0-4.6,1.4-5.6,3.5c0.5-2.1,0.8-4.3,0.8-6.4C933.5,38.6,933.4,37.4,933.2,36.3
			L933.2,36.3z M937.1,31.1c0-4.6,3.8-8.4,8.4-8.4c4.6,0,8.4,3.8,8.4,8.4s-3.8,8.4-8.4,8.4l0,0c-4.6,0-8.3-3.7-8.4-8.3
			C937.1,31.2,937.1,31.2,937.1,31.1L937.1,31.1z M952.2,19.8c-2.1-1.2-4.4-1.9-6.8-1.9c-0.6,0-1.2,0-1.8,0.2c2.9-1.3,5.7-3,8.1-5.2
			c-0.5,0.9-0.8,2-0.8,3.1C950.9,17.4,951.4,18.7,952.2,19.8L952.2,19.8z M919.4-37.7c1,2.5,3.4,4.2,6.1,4.2h0.3
			c-3.3,0.9-6.5,2.4-9.2,4.5c1.9-2.3,2.9-5.2,2.9-8.2C919.5-37.4,919.4-37.5,919.4-37.7z M954-24.9c-5.2-6.2-12.9-9.7-20.9-9.7
			c-1.7,0-3.3,0.2-5,0.5c2.4-1,3.9-3.4,3.9-6c0-2-0.9-3.8-2.4-5C939.4-40.7,947.8-33.8,954-24.9z M928.7-40.1c0,1.8-1.4,3.2-3.2,3.2
			s-3.2-1.4-3.2-3.2s1.4-3.2,3.2-3.2C927.3-43.3,928.7-41.9,928.7-40.1z M926.1-46.5h-0.6c-3.4,0-6.2,2.6-6.4,6
			c-1.1-4.5-4.5-8-8.9-9.3C915.6-49.5,921-48.4,926.1-46.5z M902.1-49.9c-4.3,1.4-7.7,4.9-8.9,9.3c-0.3-3.4-3.1-6-6.4-6h-0.6
			C891.3-48.4,896.7-49.6,902.1-49.9L902.1-49.9z M895.7-29c-2.7-2.1-5.8-3.7-9.2-4.5h0.3c2.7,0,5.1-1.7,6.1-4.2v0.5
			C892.8-34.2,893.8-31.3,895.7-29z M886.8-43.3c1.8,0,3.2,1.4,3.2,3.2s-1.4,3.2-3.2,3.2c-1.8,0-3.2-1.4-3.2-3.2l0,0
			c-0.1-1.7,1.3-3.2,3-3.2C886.7-43.3,886.8-43.3,886.8-43.3z M882.6-45.1c-1.5,1.2-2.4,3.1-2.4,5c0,2.6,1.5,4.9,3.9,6
			c-1.6-0.3-3.3-0.5-5-0.5c-8.1,0-15.7,3.5-20.9,9.7C864.3-33.7,872.8-40.7,882.6-45.1L882.6-45.1z M879.1-29.6
			c12.4,0,22.4,10,22.4,22.4s-10,22.4-22.4,22.4c-12.4,0-22.4-10-22.4-22.4C856.7-19.6,866.7-29.6,879.1-29.6z M847.8,8.2
			c0-8.5,1.9-16.9,5.5-24.6c-1,3-1.6,6.1-1.6,9.2c0,6.4,2.3,12.7,6.4,17.6c-1-0.7-2.2-1-3.4-1c-3.4,0-6.2,2.6-6.4,6
			C848,13,847.8,10.6,847.8,8.2z M858,16c0,1.8-1.4,3.2-3.2,3.2c-1.8,0-3.2-1.4-3.2-3.2c0-1.8,1.4-3.2,3.2-3.2
			C856.5,12.8,858,14.2,858,16z M854,34.2c-2.5-4.9-4.2-10.2-5.2-15.6c1.1,2.3,3.4,3.8,6,3.9c0.8,0,1.7-0.2,2.4-0.5
			c-2.4,2.5-3.7,5.8-3.7,9.2C853.6,32.2,853.8,33.2,854,34.2z M867.5,49.2c0,1.5,0.5,2.9,1.5,4c-4.2-3.6-8-7.7-11.1-12.2
			c2.4,2.3,5.7,3.6,9,3.5c1.2,0,2.4-0.2,3.5-0.5C868.5,45.1,867.4,47,867.5,49.2L867.5,49.2z M873.9,46.1c1.7,0,3.1,1.4,3.1,3.1
			s-1.4,3.1-3.1,3.1s-3.1-1.4-3.1-3.1l0,0c-0.1-1.6,1.2-3,2.9-3.1C873.8,46.1,873.9,46.1,873.9,46.1L873.9,46.1z M871.2,54.8
			c0.8,0.5,1.8,0.7,2.7,0.6c3.5,0,6.3-2.8,6.3-6.3v-0.6c2.8,8.4,9.5,15,18,17.6C888.4,64.7,879.1,60.8,871.2,54.8L871.2,54.8z
			 M914,66.1c8.5-2.6,15.2-9.1,18-17.6v0.6c0,3.5,2.8,6.3,6.3,6.3c0.9,0,1.9-0.3,2.7-0.6C933.2,60.8,923.9,64.7,914,66.1L914,66.1z
			 M938.4,52.2c-1.7,0-3.1-1.4-3.1-3.1s1.4-3.1,3.1-3.1s3.1,1.4,3.1,3.1v0C941.4,50.8,940,52.2,938.4,52.2L938.4,52.2z M943.2,53.2
			c1-1.1,1.5-2.6,1.4-4c0-2.1-1-4.1-2.7-5.3c1.2,0.3,2.3,0.5,3.5,0.5c3.4,0,6.6-1.2,9-3.5C951.3,45.4,947.5,49.6,943.2,53.2
			L943.2,53.2z"/>
	</g>
	<g class="st1">
		<path class="st0" d="M878.5,92l2-8.1h1.8l-3.1,10.6h-1.5l-2.6-8l-2.5,8h-1.5l-3.1-10.6h1.8l2.1,7.9l2.5-7.9h1.5L878.5,92z"/>
		<path class="st0" d="M895.6,94.5c-0.1-0.2-0.2-0.6-0.3-1.1c-0.8,0.9-1.8,1.3-3,1.3c-1,0-1.9-0.3-2.6-0.9c-0.7-0.6-1-1.3-1-2.2
			c0-1.1,0.4-2,1.3-2.6c0.8-0.6,2-0.9,3.5-0.9h1.8v-0.8c0-0.6-0.2-1.1-0.6-1.5c-0.4-0.4-0.9-0.6-1.7-0.6c-0.6,0-1.2,0.2-1.6,0.5
			c-0.4,0.3-0.7,0.7-0.7,1.2H889c0-0.5,0.2-1,0.6-1.5c0.4-0.5,0.9-0.9,1.5-1.2c0.6-0.3,1.3-0.4,2.1-0.4c1.2,0,2.2,0.3,2.9,0.9
			c0.7,0.6,1,1.4,1.1,2.5V92c0,1,0.1,1.7,0.4,2.3v0.2H895.6z M892.6,93.1c0.6,0,1.1-0.1,1.6-0.4s0.9-0.7,1.1-1.1v-2.2h-1.4
			c-2.2,0-3.3,0.6-3.3,1.9c0,0.6,0.2,1,0.6,1.3C891.6,92.9,892,93.1,892.6,93.1z"/>
		<path class="st0" d="M906.9,94.5h-1.8v-15h1.8V94.5z"/>
		<path class="st0" d="M916.7,94.5h-1.8v-15h1.8V94.5z"/>
		<path class="st0" d="M928.9,94.7c-1.4,0-2.6-0.5-3.5-1.4c-0.9-0.9-1.3-2.2-1.3-3.8v-0.3c0-1,0.2-2,0.6-2.8c0.4-0.8,1-1.5,1.7-1.9
			c0.7-0.5,1.5-0.7,2.3-0.7c1.4,0,2.4,0.5,3.2,1.4c0.8,0.9,1.1,2.2,1.1,3.9v0.8h-7.2c0,1,0.3,1.9,0.9,2.5c0.6,0.6,1.3,1,2.2,1
			c0.6,0,1.2-0.1,1.6-0.4c0.4-0.3,0.8-0.6,1.2-1l1.1,0.9C932,94,930.7,94.7,928.9,94.7z M928.7,85.2c-0.7,0-1.3,0.3-1.8,0.8
			c-0.5,0.5-0.8,1.3-0.9,2.2h5.3v-0.1c-0.1-0.9-0.3-1.6-0.7-2.1C930.1,85.5,929.5,85.2,928.7,85.2z"/>
		<path class="st0" d="M942.6,81.4v2.6h2v1.4h-2v6.6c0,0.4,0.1,0.7,0.3,1c0.2,0.2,0.5,0.3,0.9,0.3c0.2,0,0.5,0,0.9-0.1v1.5
			c-0.5,0.1-0.9,0.2-1.4,0.2c-0.8,0-1.4-0.2-1.8-0.7s-0.6-1.2-0.6-2.1v-6.6h-1.9v-1.4h1.9v-2.6H942.6z"/>
	</g>
</g>
</svg>
