<svg id="Layer_1" xmlns="http://www.w3.org/2000/svg" viewBox="0 0 856.1 1341"><style>.st0{fill:#f8f8f9}</style><path class="st0" d="M76.6 1099.8c14.9 0 27.1-3.3 36.5-10 9.4-6.7 14.1-16.7 14.1-30 0-6.5-1.4-12.1-4.1-16.7-2.7-4.6-6.3-8.4-10.6-11.6-4.3-3.1-9.2-5.8-14.5-8-5.4-2.2-10.7-4.3-15.9-6.1-7.6-2.6-15.6-5.6-23.9-9-8.4-3.4-16-7.7-23-13-6.9-5.2-12.7-11.7-17.3-19.4-4.6-7.7-6.9-17.1-6.9-28.1 0-10.5 1.8-19.8 5.5-28.1 3.7-8.2 8.7-15.2 15.1-21 6.4-5.7 13.9-10.1 22.6-13.1 8.6-3 17.9-4.5 27.9-4.5 9.4 0 20 1.2 31.8 3.5 11.8 2.4 23.3 7.7 34.5 16.1 2.3 1.8 3.1 3.5 2.3 4.9-.8 1.4-1.4 2.7-2 3.7l-9.4 14.9c-1.3 1.8-2.9 2.6-4.7 2.3-1.8-.2-3.5-.9-5.1-1.9-8.9-5.2-16.8-9-23.5-11.2-6.8-2.2-13.6-3.3-20.4-3.3-5.8 0-11.2.6-16.3 2-5.1 1.3-9.6 3.5-13.3 6.5-3.8 3-6.8 6.9-9 11.8s-3.3 10.9-3.3 18.2c0 5.3 1.4 9.8 4.1 13.7 2.7 3.9 6.3 7.4 10.8 10.4 4.5 3 9.4 5.7 14.9 8 5.5 2.4 11 4.6 16.5 6.7 8.6 3.4 17.1 6.9 25.5 10.4 8.4 3.5 15.8 7.9 22.4 13.1 6.5 5.2 11.8 11.6 15.9 19.2 4 7.6 6.1 17.3 6.1 29.1 0 10.7-2 20.3-6.1 28.8s-9.8 15.7-17.1 21.6c-7.3 5.9-16.1 10.5-26.3 13.7-10.2 3.3-21.3 4.9-33.4 4.9-14.9 0-28.8-2.5-41.8-7.7-12.9-5.1-23-12.6-30-22.6-2.3-2.6-1.8-5.2 1.6-7.8l14.5-13.3c1.6-1.3 2.9-1.6 4.1-1 1.2.7 2.7 1.9 4.5 3.7 6 6.5 13.1 11.5 21.2 14.9 8 3.6 16.5 5.3 25.5 5.3m292.3-151.9c0-10.7-2-20.3-5.9-28.7-3.9-8.4-9.3-15.4-16.3-21-6.9-5.6-14.9-9.9-23.9-12.8-9-2.9-18.6-4.3-28.9-4.3-10.5 0-20.2 1.5-29.2 4.5s-16.9 7.4-23.5 13.1c-6.7 5.8-12 12.8-15.9 21-3.9 8.2-5.9 17.6-5.9 28.1v113.8c0 11 1.9 20.7 5.7 29 3.8 8.4 9.1 15.4 15.9 21 6.8 5.6 14.7 9.9 23.7 12.8 9 2.9 18.9 4.3 29.6 4.3 10.7 0 20.6-1.5 29.6-4.5s16.9-7.4 23.6-13.1c6.7-5.8 11.9-12.8 15.7-21 3.8-8.3 5.7-17.7 5.7-28.5V947.9zm-32.9 113c0 11.8-3.7 21.3-11.2 28.5-7.5 7.2-17.7 10.8-30.8 10.8-13.3 0-23.6-3.6-30.8-10.8-7.2-7.2-10.8-16.7-10.8-28.5V948.7c0-11 3.8-20.2 11.4-27.7 7.6-7.5 17.8-11.2 30.6-11.2 12.6 0 22.6 3.7 30.2 11 7.6 7.3 11.4 16.6 11.4 27.9v112.2zm103.6-176.6c-3.7 0-6 .8-6.9 2.3-.9 1.6-1.4 4.1-1.4 7.5v228c0 2.9 1.6 4.3 4.7 4.3h22.4c2.9 0 4.3-1.6 4.3-4.7V952.6c0-.8.4-.8 1.2 0l91.4 168c1 2.1 2.3 3.6 3.8 4.5 1.5.9 3.6 1.4 6.6 1.4h15.1c1.6 0 3.2-.4 5-1.4 1.7-.9 2.6-3.1 2.6-6.5V888.2c0-2.6-1.6-3.9-4.8-3.9h-22.2c-2.9 0-4.4 1.4-4.4 4.3v170.7c0 .5-.1.7-.4.6-.3-.1-.5-.4-.8-1l-91.4-168.4c-1.3-1.8-2.6-3.3-3.9-4.5-1.3-1.2-3.5-1.8-6.7-1.8h-14.2zm413.7 242.2c2.9 0 4.4-1.6 4.4-4.7V891.4c0-2.1-.5-3.8-1.4-5.1-.9-1.3-2.8-2-5.8-2h-15.9c-2.6 0-4.6.4-5.8 1.2-1.2.8-2.4 2.2-3.8 4.3l-52 140.1c-2.6 7.1-5.2 14.5-7.6 22.2-2.5 7.7-5 15.1-7.6 22.2-1 1.8-2.2 1.7-3.5-.4l-14.9-43.2L687 890.2c-1.3-2.6-2.4-4.3-3.2-4.9-.8-.7-3.1-1-6.8-1h-15.5c-4.8 0-7.2 2.5-7.2 7.5v230.4c0 2.9 1.6 4.3 4.8 4.3h22.2c2.9 0 4.4-1.6 4.4-4.7V970.7c0-.8.4-.8 1.2 0l16.8 47.9 36 95c.8 2.1 1.8 3.5 2.9 4.1 1.2.7 2.8 1 4.9 1h15.3c2.3 0 4.1-.7 5.1-2.1 1-1.4 1.8-2.5 2.3-3.3l38-97.7 16.4-45.9c.2-.5.6-.7 1-.6.4.1.6.5.6 1v152.3c0 2.9 1.4 4.3 4.4 4.3h22.7M293.3 1299.9l10-40.3h9l-15.5 52.6h-7.4l-12.8-39.7-12.4 39.7h-7.4l-15.5-52.6h9l10.4 39.3 12.4-39.3h7.4l12.8 40.3zm84.9 12.4c-.4-1-1-3-1.4-5.4-4 4.4-9 6.4-14.9 6.4-5 0-9.4-1.4-12.8-4.4-3.4-3-5-6.4-5-10.8 0-5.4 2-10 6.4-12.8 4-3 10-4.4 17.5-4.4h9v-4c0-3-1-5.4-3-7.4s-4.4-3-8.4-3c-3 0-6 1-8 2.4s-3.4 3.4-3.4 6h-8.4c0-2.4 1-5 3-7.4s4.4-4.4 7.4-6c3-1.4 6.4-2 10.4-2 6 0 10.8 1.4 14.5 4.4 3.4 3 5 7 5.4 12.4v23.9c0 5 .4 8.4 2 11.4v1h-10.2v-.3zm-14.9-6.8c3 0 5.4-.4 8-2 2.4-1.4 4.4-3.4 5.4-5.4v-10.8h-7c-10.8 0-16.5 3-16.5 9.4 0 3 1 5 3 6.4 2.1 1.4 4.1 2.4 7.1 2.4zm71.1 6.8h-9v-74.5h9v74.5zm48.6 0h-9v-74.5h9v74.5zm60.6 1c-7 0-12.8-2.4-17.5-7-4.6-4.6-6.4-10.8-6.4-18.9v-1.4c0-5 1-10 3-13.9 2-4 5-7.4 8.4-9.4 3.4-2.4 7.4-3.4 11.4-3.4 7 0 11.8 2.4 15.9 7 4 4.4 5.4 10.8 5.4 19.5v4h-35.7c0 5 1.4 9.4 4.4 12.4s6.4 5 10.8 5c3 0 6-.4 8-2 2-1.4 4-3 6-5l5.4 4.4c-3.7 5.3-10.1 8.7-19.1 8.7zm-1-47.1c-3.4 0-6.4 1.4-9 4-2.4 2.4-4 6.4-4.4 10.8h26.3v-.4c-.4-4.4-1.4-8-3.4-10.4-2.5-2.4-5.5-4-9.5-4zm69-18.9v12.8h10v7h-10v32.7c0 2 .4 3.4 1.4 5 1 1 2.4 1.4 4.4 1.4 1 0 2.4 0 4.4-.4v7.4c-2.4.4-4.4 1-7 1-4 0-7-1-9-3.4s-3-6-3-10.4v-32.7h-9.4v-7h9.4v-12.8h8.4v-.6h.4z"/><path id="Path_100" class="st0" d="M751.7 337c0-177.4-143.5-321-321-322-177.8.4-321 145.1-320.6 323 .4 176.8 143.5 320 320.6 320.6 177.5 0 321-144.2 321-321.6zm-61.6 129.2c1-5 1.4-9.4 1.4-14.5 0-16.9-6.4-33.3-18.5-45.8 15.9 6.4 34.7-1 41.8-16.9-5.2 27.1-13.2 52.8-24.7 77.2zm-20.7-90.5c0-9 7-15.9 15.9-15.9 8.8 0 15.9 7 15.9 15.9s-7 15.9-15.9 15.9c-9 0-15.9-6.8-15.9-15.9zm50.2-38.7c0 11.8-1 23.3-2.4 35.3-1.4-16.9-15.5-29.9-31.7-29.9-6 0-11.8 1.4-16.9 5 20.3-24.3 31.7-55.2 31.7-87.5 0-15.5-3-30.7-8-45.8 17.9 39 27.3 80.5 27.3 122.9zm-155.2 35.3c-61.6 0-111.4-49.8-111.4-111.4s49.8-111.4 111.4-111.4 111.4 49.8 111.4 111.4c-.5 61.6-50.1 111.4-111.4 111.4zm-4 80.9c-8.4-26.3-24.3-49.8-46.2-66.6 16.5 7 33.7 10.4 51.2 10.4 10.4 0 20.3-1.4 30.3-3-21.3 11.4-34.7 33.3-35.3 57.6v1.6zm-294.6-60c10 2.4 20.3 3.4 30.3 3 17.5 0 34.7-3.4 51.2-10.4-21.9 16.9-38.3 40.3-46.2 66.6v-2c-.4-24.5-14.5-46.4-35.3-57.2zm-61.7-32.9c11.4 10.8 24.9 19.9 40.3 25.9-3 0-5.4-1-9-1-11.8 0-23.3 3-33.7 9.4 4-5.4 6.4-12.4 6.4-19.5 0-4.8-1.4-10.2-4-14.8zm31.3 49.7c22.9 0 41.8 18.9 41.8 41.8s-18.9 41.8-41.8 41.8-41.8-18.9-41.8-41.8 18.5-41.2 41.2-41.8h.6zm59.7 66.7c-1 6-1.4 11.8-1.4 17.5 0 10.8 1.4 21.3 4 31.7-5.4-10.4-15.9-17.5-27.9-17.5-1.4 0-3.4 0-5 1 14-7 24.8-18.9 30.3-32.7zm135.7-94c61.6 0 111.8 49.8 112.2 111.4 0 61.6-49.8 111.8-111.4 112.2-61.6 0-111.8-49.8-112.2-111.4-.4-61.6 49.3-111.8 111.4-112.2-.4 0-.4 0 0 0zm0-229.6c-22.9 0-41.8-18.9-41.8-41.8s18.9-41.8 41.8-41.8 41.8 18.9 41.8 41.8-18.5 41.2-41.2 41.8h-.6zm0 24.9c12.4 0 24.9-4 35.3-10.4-18.5 19.5-30.7 43.8-35.3 70.7-4.4-26.3-16.9-51.2-35.3-70.7 10.4 6.4 22.4 10.4 35.3 10.4zm0 104.8c5.4 34.3 23.9 64.6 51.2 85.5-16.5-6.4-33.7-10-51.2-10.4-17.5 0-34.7 3.4-51.2 10.4 26.9-20.9 45.3-51.8 51.2-85.5zm134.3 193.9c6 14.5 16.9 25.9 30.3 32.7-1.4 0-3-1-5-1-11.8 0-22.9 7-27.9 17.5 2.4-10.4 4-21.3 4-31.7 0-6.3-.4-12.1-1.4-17.5zm19.2-25.9c0-22.9 18.9-41.8 41.8-41.8s41.8 18.9 41.8 41.8-18.9 41.8-41.8 41.8-41.2-18.5-41.8-41.2v-.6zm75.1-56.2c-10.4-6-21.9-9.4-33.7-9.4-3 0-6 0-9 1 14.5-6.4 28.3-14.9 40.3-25.9-2.4 4.4-4 10-4 15.5 0 6.9 2.4 13.4 6.4 18.8zm-163-285.7c5 12.4 16.9 20.9 30.3 20.9h1.4c-16.5 4.4-32.3 11.8-45.8 22.3 9.4-11.4 14.5-25.9 14.5-40.7.2-1.1-.4-1.5-.4-2.5zm172 63.7c-25.9-30.7-64-48.2-103.8-48.2-8.4 0-16.5 1-24.9 2.4 11.8-5 19.5-16.9 19.5-29.9 0-10-4.4-18.9-11.8-24.9 48.4 21.9 90.1 56.2 121 100.6zM542.6 96.9c0 9-7 15.9-15.9 15.9-8.8 0-15.9-7-15.9-15.9s7-15.9 15.9-15.9c8.8 0 15.9 7.1 15.9 15.9zm-12.9-31.7h-3C509.9 65.2 496 78 495 95.1c-5.4-22.3-22.3-39.7-44.2-46.2 26.7 1.4 53.6 6.8 78.9 16.3zM410.5 48.3c-21.3 7-38.3 24.3-44.2 46.2-1.4-16.9-15.5-29.9-31.7-29.9h-3c25.1-8.9 52-14.9 78.9-16.3zm-31.9 103.8c-13.4-10.4-28.9-18.5-45.8-22.3h1.4c13.4 0 25.3-8.4 30.3-20.9v2.4c-.2 14.9 4.6 29.4 14.1 40.8zM334.4 81c9 0 15.9 7 15.9 15.9s-7 15.9-15.9 15.9c-9 0-15.9-7-15.9-15.9-.3-8.4 6.5-15.9 14.9-15.9h1zm-20.9-9c-7.4 6-11.8 15.5-11.8 24.9 0 12.8 7.4 24.3 19.5 29.9-8-1.4-16.5-2.4-24.9-2.4-40.3 0-78.1 17.5-103.8 48.2 30.1-43.8 72.3-78.7 121-100.6zm-17.4 77.1c61.6 0 111.4 49.8 111.4 111.4s-49.8 111.4-111.4 111.4-111.4-49.8-111.4-111.4c.2-61.6 49.7-111.4 111.4-111.4zM140.7 337c0-42.2 9.4-83.9 27.3-122.2-5 14.9-8 30.3-8 45.8 0 31.7 11.4 63 31.7 87.5-5-3.4-10.8-5-16.9-5-16.9 0-30.7 12.8-31.7 29.9-1.4-12.1-2.4-24.2-2.4-36zm50.6 38.7c0 9-7 15.9-15.9 15.9-9 0-15.9-7-15.9-15.9s7-15.9 15.9-15.9c8.5.1 15.9 6.9 15.9 15.9zm-19.9 90.5c-12.4-24.3-20.9-50.8-25.9-77.5 5.4 11.4 16.9 18.9 29.9 19.5 4 0 8.4-1 11.8-2.4-11.8 12.4-18.5 28.9-18.5 45.8.7 4.6 1.7 9.6 2.7 14.6zm67.1 74.5c0 7.4 2.4 14.5 7.4 19.9-20.9-17.9-39.7-38.3-55.2-60.6 11.8 11.4 28.3 17.9 44.8 17.5 6 0 11.8-1 17.5-2.4-9.5 5.1-14.9 14.6-14.5 25.6zm31.9-15.4c8.4 0 15.5 7 15.5 15.5s-7 15.5-15.5 15.5-15.5-7-15.5-15.5c-.4-8 6-14.9 14.5-15.5h1zm-13.5 43.1c4 2.4 9 3.4 13.4 3 17.5 0 31.3-13.9 31.3-31.3v-3c13.9 41.8 47.2 74.5 89.5 87.5-48.7-6.8-95-26.3-134.2-56.2zm212.6 56.2c42.2-12.8 75.5-45.2 89.5-87.5v3c0 17.5 13.9 31.3 31.3 31.3 4.4 0 9.4-1.4 13.4-3-38.6 29.9-85 49.4-134.2 56.2zm121.2-69c-8.4 0-15.5-7-15.5-15.5s7-15.5 15.5-15.5c8.4 0 15.5 7 15.5 15.5-.4 8.4-7.4 15.5-15.5 15.5zm23.9 5c5-5.4 7.4-12.8 7-19.9 0-10.4-5-20.3-13.4-26.3 6 1.4 11.4 2.4 17.5 2.4 16.9 0 32.7-6 44.8-17.5-15.5 22.6-34.4 43.4-55.9 61.3z"/></svg>