<svg xmlns="http://www.w3.org/2000/svg" viewBox="0 0 256.67 232.71"><title>deposit</title><g id="Слой_2" data-name="Слой 2"><g id="deposit"><path d="M140.31,232.71a116.41,116.41,0,0,1-109-75.5,1,1,0,0,1,1.87-.7,114.33,114.33,0,1,0,0-80.3,1,1,0,1,1-1.87-.7,116.37,116.37,0,1,1,109,157.21Zm-9.21-116.36a1,1,0,0,0-1-1H1a1,1,0,0,0,0,2H130.09A1,1,0,0,0,131.09,116.36Zm-.35.76a1,1,0,0,0,.12-1.41L117.53,100a1,1,0,0,0-1.53,1.29L129.33,117a1,1,0,0,0,1.41.12Zm.35-.76a1,1,0,0,0-1-1H1a1,1,0,0,0,0,2H130.09A1,1,0,0,0,131.09,116.36Zm-13.57,16.4L130.86,117a1,1,0,0,0-1.53-1.29L116,131.46a1,1,0,0,0,1.53,1.29Z"/></g></g></svg>