<svg xmlns="http://www.w3.org/2000/svg" viewBox="0 0 232.71 232.71"><title>send</title><g id="Слой_2" data-name="Слой 2"><g id="snd"><path d="M116.36,0A116.36,116.36,0,1,0,232.71,116.36,116.49,116.49,0,0,0,116.36,0Zm0,230.71A114.36,114.36,0,1,1,230.71,116.36,114.49,114.49,0,0,1,116.36,230.71ZM161.93,44.06a1,1,0,0,0-.95,0l-131,72a1,1,0,0,0,.25,1.85L82.5,130.08l2.3,57.57a3738.48,3738.48,0,0,0,.06.28,1,1,0,0,0,.13.25s0,0,0,.06h0a1,1,0,0,0,.31.24l.11,0,.15.06.19,0h0a1,1,0,0,0,.3-.05l.09,0a1,1,0,0,0,.19-.11l0,0L137.33,147l34.77,13.5a1,1,0,0,0,1.36-1l-11-114.67A1,1,0,0,0,161.93,44.06Zm-3.56,3.73L83.13,128.17,33.24,116.56ZM84.48,129.65,156.23,53l-47.29,81.77v0l0,0L86.63,183.39Zm4,54.48,21.82-47.58,24.87,9.66Zm22.75-49.37L160.85,49l10.46,109.09Z"/></g></g></svg>