<svg xmlns="http://www.w3.org/2000/svg" viewBox="0 0 256.67 232.71"><title>withdraw</title><g id="Слой_2" data-name="Слой 2"><g id="withdraw"><path d="M116.36,232.71a116.35,116.35,0,1,1,109-157.21,1,1,0,1,1-1.87.7,114.33,114.33,0,1,0,0,80.3,1,1,0,0,1,1.87.7,116.4,116.4,0,0,1-109,75.5ZM256.67,116.36a1,1,0,0,0-1-1H126.57a1,1,0,0,0,0,2H255.67A1,1,0,0,0,256.67,116.36Zm-.35.76a1,1,0,0,0,.12-1.41L243.1,100a1,1,0,0,0-1.53,1.29L254.9,117a1,1,0,0,0,1.41.12Zm.35-.76a1,1,0,0,0-1-1H126.57a1,1,0,0,0,0,2H255.67A1,1,0,0,0,256.67,116.36Zm-13.57,16.4L256.43,117a1,1,0,0,0-1.53-1.29l-13.33,15.75a1,1,0,0,0,1.53,1.29Z"/></g></g></svg>