<svg xmlns="http://www.w3.org/2000/svg" viewBox="-1719 173 232 232"><g data-name="Group 671" transform="translate(-2700)"><circle data-name="Ellipse 36" cx="116" cy="116" r="116" transform="translate(981 173)" fill="#f8f8f9"/><path data-name="Path 118" d="M1130.224 236.521a4.371 4.371 0 0 0-.832.238l-91.47 49.893a2.423 2.423 0 0 0-.95 3.207 2.456 2.456 0 0 0 1.663 1.188l36.054 6.771v40.805a2.383 2.383 0 0 0 2.376 2.376 2.157 2.157 0 0 0 1.663-.713l29.7-30.886a1.043 1.043 0 0 0 .238-.3l29.223 11.523a2.368 2.368 0 0 0 3.089-1.366 3.458 3.458 0 0 0 .178-1.129l-8.316-79.592a2.4 2.4 0 0 0-2.613-2.138c.059.119.059.119 0 .119zm-1.368 8.969l7.246 69.316-39.8-15.681zm-10.216 2.613l-42.35 45.2-30.174-5.643zm-3.267 10.394l-24.887 40.924a.844.844 0 0 0-.119.356l-10.87 27.144v-30.055zm-21.317 44.786l9.979 3.92-19.843 20.606 9.86-24.531z"/></g></svg>