<svg xmlns="http://www.w3.org/2000/svg" viewBox="-1719 173 232 232">
  <defs>
    <style>
      .cls-1 {
        fill: #f8f8f9;
      }
    </style>
  </defs>
  <g id="Group_671" data-name="Group 671" transform="translate(-2700)">
    <circle id="Ellipse_36" data-name="Ellipse 36" class="cls-1" cx="116" cy="116" r="116" transform="translate(981 173)"/>
    <path id="Path_118" data-name="Path 118" d="M93.468,952.312a4.371,4.371,0,0,0-.832.238L1.166,1002.443a2.423,2.423,0,0,0-.95,3.207,2.456,2.456,0,0,0,1.663,1.188l36.054,6.771v40.805a2.383,2.383,0,0,0,2.376,2.376,2.157,2.157,0,0,0,1.663-.713l29.7-30.886a1.043,1.043,0,0,0,.238-.3l29.223,11.523a2.368,2.368,0,0,0,3.089-1.366,3.458,3.458,0,0,0,.178-1.129l-8.316-79.592a2.4,2.4,0,0,0-2.613-2.138c.059.119.059.119,0,.119ZM92.1,961.281l7.246,69.316-39.8-15.681Zm-10.216,2.613-42.35,45.2-30.174-5.643Zm-3.267,10.394-24.887,40.924a.844.844,0,0,0-.119.356l-10.87,27.144v-30.055ZM57.3,1019.074l9.979,3.92L47.436,1043.6l9.86-24.531Z" transform="translate(1036.756 -715.791)"/>
  </g>
</svg>
