<svg xmlns="http://www.w3.org/2000/svg" viewBox="0 0 100 100">
    <circle cx="50.3" cy="49.9" r="50" fill="#0c1c25" />
    <path
        d="M50.3 10c-22 0-39.9 17.9-39.9 39.9s17.9 39.9 39.9 39.9 39.9-17.9 39.9-39.9S72.3 10 50.3 10zm16 41.7c-6 0-11-4.9-11-11s4.9-11 11-11c6 0 11 4.9 11 11-.1 6.1-5 11-11 11zm6.7 8.6c1.5 0 2.7 1.2 2.7 2.7 0 1.5-1.2 2.7-2.7 2.7s-2.7-1.2-2.7-2.7c0-1.5 1.2-2.7 2.7-2.7zm-4.6-3.7c-1.9 1.3-3.1 3.6-3.2 6-1.2-3-3.2-5.5-5.8-7.4 2.1 1 4.4 1.5 6.8 1.5.8.1 1.5.1 2.2-.1zM54.7 17.4c7 .9 13.3 4 18.1 8.7-2-.9-4.3-1.4-6.6-1.4-3.4 0-6.6 1.1-9.2 2.9.6-1.1 1-2.4 1-3.8 0-2.6-1.3-5-3.3-6.4zm-1.8 6.4c0 1.5-1.2 2.7-2.7 2.7s-2.7-1.2-2.7-2.7c0-1.5 1.2-2.7 2.7-2.7 1.5 0 2.7 1.2 2.7 2.7zm-2.7 7.9c1.3 0 2.4-.3 3.4-.8-2 2.5-3.2 5.6-3.4 9.1-.1-3.4-1.4-6.6-3.4-9.1 1.1.5 2.2.8 3.4.8zm0 9.9c.3 5.1 2.9 9.5 6.8 12.3-2.1-1-4.4-1.5-6.8-1.5-2.3 0-4.5.5-6.5 1.3 3.7-2.8 6.2-7.1 6.5-12.1zm-7.8-17.8c0 1.3.3 2.7 1 3.8-2.6-1.8-5.8-2.9-9.1-2.9-2.2 0-4.4.5-6.3 1.3 4.8-4.6 11-7.7 17.9-8.7-2.2 1.5-3.5 3.9-3.5 6.5zm-8.2 6c6 0 11 4.9 11 11s-4.9 11-11 11-11-4.9-11-11 5-11 11-11zm6.5 25.7c-2.5 1.8-4.5 4.3-5.5 7.2-.1-2.5-1.3-4.7-3.3-6 .7.1 1.5.1 2.3.1 2.3 0 4.5-.5 6.5-1.3zm-13.6-.3c-3.8.1-6.8 2.8-7.5 6.4-1.4-3.6-2.2-7.6-2.2-11.7 0-2.4.3-4.7.8-7 .8 5.4 4.2 10 8.9 12.3zm.2 5.1c1.5 0 2.7 1.2 2.7 2.7 0 1.5-1.2 2.7-2.7 2.7-1.5 0-2.7-1.2-2.7-2.7 0-1.5 1.2-2.7 2.7-2.7zm0 10.6c2.9 0 5.5-1.6 6.8-4 0 .5-.1 1-.1 1.6 0 5.2 2.4 9.8 6.3 12.7-6.2-2-11.6-5.8-15.6-10.8.8.3 1.7.5 2.6.5zm11.9-2.5c0-6 4.9-11 11-11s11 4.9 11 11c0 6-4.9 11-11 11s-11-5-11-11zm20.6 12.9c3.9-2.9 6.4-7.6 6.4-12.8 0-.6 0-1.1-.1-1.6 1.3 2.4 3.9 4 6.8 4 1 0 2-.2 2.9-.6-3.9 5.1-9.5 9-16 11zm13.5-26.1c4.8-2.4 8.3-7.1 8.9-12.7.6 2.4.8 4.8.8 7.4 0 4.3-.8 8.4-2.3 12.1-.4-3.7-3.5-6.6-7.4-6.8z"
        fill="#f1f2f1"
    />
</svg>
