<?xml version="1.0" encoding="utf-8"?>
<!-- Generator: Adobe Illustrator 22.0.1, SVG Export Plug-In . SVG Version: 6.00 Build 0)  -->
<svg version="1.1" id="Слой_1" xmlns="http://www.w3.org/2000/svg" xmlns:xlink="http://www.w3.org/1999/xlink" x="0px" y="0px"
	 viewBox="0 0 212.3 257" style="enable-background:new 0 0 212.3 257;" xml:space="preserve">
<g>
	<path d="M197,96.6V0H33v10H23v10H13v80.1C4.7,115.2,0,132.5,0,151c0,58.5,47.5,106,106,106s106-47.5,106-106
		C212,131.1,206.5,112.5,197,96.6z M210,151c0,18.2-4.7,35.4-13,50.3V100.7C205.3,115.6,210,132.8,210,151z M35,2h160v202.8
		c-2.4,4-5.1,7.8-8,11.4V10H35V2z M13,104.5v93c-7-14-11-29.8-11-46.5S6,118.5,13,104.5z M15,201.3V22h160v206.7
		c-4.7,4.2-9.8,8-15.2,11.3H138v-10.2c6.5-3.3,11-10,11-17.8c0-11-9-20-20-20s-20,9-20,20c0,7.8,4.5,14.5,11,17.8V240H52.2
		C36.7,230.6,23.8,217.2,15,201.3z M129,230c-9.9,0-18-8.1-18-18s8.1-18,18-18s18,8.1,18,18S138.9,230,129,230z M122,230.7
		c2.2,0.8,4.5,1.3,7,1.3s4.8-0.5,7-1.3v14.2l-5.8-4.5l-1.2-1l-1.2,1l-5.8,4.5V230.7z M55.7,242H120v7l9-7l9,7v-7h18.3
		c-14.9,8.3-32.1,13-50.3,13S70.6,250.3,55.7,242z M177,226.9V20H25v-8h160v206.6C182.5,221.5,179.8,224.3,177,226.9z"/>
	<polygon points="126.5,217.8 119.4,210.7 118,212.1 126.5,220.6 127.9,219.2 140.6,206.5 139.2,205.1 	"/>
	<rect x="45" y="98" width="100" height="2"/>
	<rect x="45" y="177" width="32" height="2"/>
	<rect x="45" y="171" width="32" height="2"/>
	<rect x="113" y="177" width="32" height="2"/>
	<rect x="113" y="171" width="16" height="2"/>
	<rect x="45" y="86" width="100" height="2"/>
	<rect x="45" y="74" width="100" height="2"/>
	<rect x="45" y="62" width="100" height="2"/>
	<rect x="63" y="40" width="64" height="2"/>
</g>
</svg>
