<svg xmlns="http://www.w3.org/2000/svg" viewBox="0 0 74 74" fill="currentColor">
	<path d="M32.9 24.5a5.73 5.73 0 0 0-1.6 4.3c0 1.7.5 3.1 1.6 4.3 1.1 1.1 2.4 1.7 4 1.7s2.9-.6 4-1.7 1.6-2.5 1.6-4.3c0-1.7-.5-3.1-1.6-4.3a5.95 5.95 0 0 0-4-1.8c-1.6.1-3 .7-4 1.8zm-4.1 15.1c-2.1 1.1-3.3 2.5-3.3 4.2v3h22.9v-3c-.1-1.7-1.2-3.1-3.3-4.2-2.1-1.1-4.8-1.7-8.1-1.8-3.4.1-6.1.6-8.2 1.8z"></path>
	<path d="M36.9 71.8c-19.3 0-35-15.7-35-35s15.7-35 35-35 35 15.7 35 35-15.7 35-35 35zm0-68c-18.2 0-33 14.8-33 33s14.8 33 33 33 33-14.8 33-33-14.8-33-33-33z"></path>
</svg>