<svg id="Слой_1" data-name="Слой 1" xmlns="http://www.w3.org/2000/svg" viewBox="0 0 264 264"><title>deals</title><path d="M131.24,15.87A116.36,116.36,0,1,0,247.6,132.22,116.49,116.49,0,0,0,131.24,15.87Zm103.14,67a1,1,0,0,0-.21.14l-20.9,20.58a1,1,0,0,0-.2,1.14,31.63,31.63,0,0,1-6.15,35.91l-14.64,14.64-21.79-21.78-30.17-30.17a38.82,38.82,0,0,0,17.41,4.09h0A38.73,38.73,0,0,0,185.3,96a1,1,0,0,0-1.41-1.41,37,37,0,0,1-52.05.26l-.27-.27a1,1,0,0,0-.61-.26h-.2a1,1,0,0,0-.61.26l-15.36,15.36a20.74,20.74,0,0,1-28.57.68l45.34-45.34a31.59,31.59,0,0,1,35.9-6.14,1,1,0,0,0,1.14-.2l23.21-23.66A115.14,115.14,0,0,1,234.38,82.86ZM190.07,34.19,167.68,57a33.58,33.58,0,0,0-36.82,6.18A33.62,33.62,0,0,0,94,57L71.67,34.64a114.14,114.14,0,0,1,118.4-.45ZM69.93,35.73,93.09,58.92a1,1,0,0,0,1.14.2,31.63,31.63,0,0,1,35.2,5.46L84.08,109.91a1,1,0,0,0-.29.71h0a1,1,0,0,0,.29.71,22.76,22.76,0,0,0,26.63,4.05l.08,0c.63-.33,1.25-.7,1.85-1.09l.19-.14c.56-.38,1.11-.78,1.65-1.21l.27-.24c.48-.4,1-.82,1.41-1.27l0,0,14.65-14.65,37.89,37.88,34.34,34.35a9.86,9.86,0,0,1-13.94,14h0L135.4,129.11a1,1,0,1,0-1.41,1.41l53.73,53.74h0l0,0,11.51,11.5a9.86,9.86,0,0,1-7,16.83h0a9.78,9.78,0,0,1-7-2.89l-11.51-11.52h0L120,144.47a1,1,0,1,0-1.41,1.41l53.73,53.72h0a9.86,9.86,0,0,1-7,16.84h0a9.76,9.76,0,0,1-7-2.89l-23-23h0l-30.71-30.7a1,1,0,1,0-1.41,1.41L134,191.93h0A9.86,9.86,0,1,1,120,205.89L97.78,183.62,70.14,156h0L54.78,140.63a31.62,31.62,0,0,1-6.15-35.91,1,1,0,0,0-.2-1.14L28,83.08A115.14,115.14,0,0,1,69.93,35.73ZM83.38,172,72.56,182.86h0l0,0a9.76,9.76,0,0,1-6.94,2.87h0a9.86,9.86,0,0,1-7-16.83L69.43,158.1ZM74,184.28h0l10.82-10.81L96.22,184.9l2.51,2.51-10.81,10.8h0L76.4,209.74a9.85,9.85,0,0,1-13.93,0,9.89,9.89,0,0,1,0-14Zm15.36,15.35h0l10.82-10.81,13.94,13.94-10.81,10.82a9.86,9.86,0,0,1-13.95-13.94Zm41.92,46.95A114.34,114.34,0,0,1,27.09,85L46.53,104.5A33.62,33.62,0,0,0,53.37,142L68,156.69,57.21,167.5a11.86,11.86,0,0,0,8.39,20.24h0a12,12,0,0,0,2.29-.22L61,194.37a11.86,11.86,0,1,0,16.77,16.78l6.87-6.87a11.86,11.86,0,0,0,20,10.71l10.81-10.82,3.13,3.13a11.85,11.85,0,0,0,20-10.71L157,215a11.75,11.75,0,0,0,8.37,3.48h0A11.86,11.86,0,0,0,177,204.27l6.86,6.87a11.77,11.77,0,0,0,8.38,3.47h0a11.86,11.86,0,0,0,8.39-20.25l-6.85-6.85a11.93,11.93,0,0,0,2.3.22,11.86,11.86,0,0,0,8.39-20.24l-10.81-10.81L208.33,142a33.63,33.63,0,0,0,6.84-37.54l20.09-19.77a114.34,114.34,0,0,1-104,161.85Z"/></svg>