<svg id="Слой_1" data-name="Слой 1" xmlns="http://www.w3.org/2000/svg" viewBox="0 0 264 264"><title>orders</title><path d="M131.24,248.58A116.36,116.36,0,1,1,247.6,132.22,116.49,116.49,0,0,1,131.24,248.58Zm0-230.71A114.36,114.36,0,1,0,245.6,132.22,114.49,114.49,0,0,0,131.24,17.87ZM67.42,102a13,13,0,1,1,3.57-.5A12.93,12.93,0,0,1,67.42,102Zm0-24a11,11,0,0,0-10.6,14A11,11,0,0,0,78,86h0a11,11,0,0,0-10.57-8Zm0,69.87a13,13,0,1,1,3.55-.5A13,13,0,0,1,67.44,147.89Zm0-24a11,11,0,1,0,10.58,8A11,11,0,0,0,67.43,123.88Zm0,63.92a13,13,0,1,1,12.5-16.56h0a13,13,0,0,1-12.5,16.56Zm0-24a11,11,0,1,0,10.59,8h0A11,11,0,0,0,67.43,163.81Zm130.5-85.28a1,1,0,0,0-1-1H90.44a1,1,0,0,0,0,2h106.5A1,1,0,0,0,197.94,78.52ZM142.44,99a1,1,0,0,0-1-1h-51a1,1,0,1,0,0,2h51A1,1,0,0,0,142.44,99Zm58,25.61a1,1,0,0,0-1-1H92.94a1,1,0,0,0,0,2h106.5A1,1,0,0,0,200.44,124.63Zm-55.5,20.5a1,1,0,0,0-1-1h-51a1,1,0,0,0,0,2h51A1,1,0,0,0,144.94,145.13Zm55.5,19.42a1,1,0,0,0-1-1H92.94a1,1,0,0,0,0,2h106.5A1,1,0,0,0,200.44,164.56Zm-55.5,20.5a1,1,0,0,0-1-1h-51a1,1,0,0,0,0,2h51A1,1,0,0,0,144.94,185.06Z"/></svg>