<svg id="Слой_1" data-name="Слой 1" xmlns="http://www.w3.org/2000/svg" viewBox="0 0 264 264"><title>market</title><path d="M131.24,174.31a103.86,103.86,0,0,1-83.57-42.5l-.43-.59.43-.59a103.41,103.41,0,0,1,167.13,0l.43.59-.43.59A103.86,103.86,0,0,1,131.24,174.31ZM49.73,131.22a101.41,101.41,0,0,0,163,0,101.41,101.41,0,0,0-163,0Zm81.52,27.15a27.15,27.15,0,1,1,27.15-27.15A27.18,27.18,0,0,1,131.24,158.37Zm0-52.29a25.15,25.15,0,1,0,25.15,25.15A25.17,25.17,0,0,0,131.24,106.08Zm0,141.5A116.36,116.36,0,1,1,247.6,131.22,116.49,116.49,0,0,1,131.24,247.58Zm0-230.71A114.36,114.36,0,1,0,245.6,131.22,114.49,114.49,0,0,0,131.24,16.87Z"/></svg>