<svg fill="currentColor" xmlns="http://www.w3.org/2000/svg" width="13" height="10" viewBox="0 0 13 10">
  <path fill-rule="evenodd" d="M2631.25977,3319.86523 L2631.25977,3318.63477 L2636.24023,3318.63477 L2636.24023,3319.86523 L2631.25977,3319.86523 Z M2641.25,3318.63477 L2643.74023,3318.63477 L2643.74023,3319.86523 L2641.25,3319.86523 L2641.25,3322.38477 L2639.99023,3322.38477 L2639.99023,3319.86523 L2637.5,3319.86523 L2637.5,3318.63477 L2639.99023,3318.63477 L2639.99023,3316.11523 L2641.25,3316.11523 L2641.25,3318.63477 Z M2638.75977,3313.625 L2638.75977,3314.88477 L2631.25977,3314.88477 L2631.25977,3313.625 L2638.75977,3313.625 Z M2638.75977,3316.11523 L2638.75977,3317.375 L2631.25977,3317.375 L2631.25977,3316.11523 L2638.75977,3316.11523 Z" transform="translate(-2631 -3313)"/>
</svg>
