<svg xmlns="http://www.w3.org/2000/svg" width="20" height="18" viewBox="0 0 20 18" fill="currentColor">
  <path fill="#939598" fill-rule="evenodd" d="M10,8 C7.790861,8 6,6.209139 6,4 C6,1.790861 7.790861,0 10,0 C12.209139,0 14,1.790861 14,4 C14,6.209139 12.209139,8 10,8 Z M10.0003488,11 C14.7054604,11 17.9154842,12.206959 19.6304201,14.6208769 C19.8708392,14.9592705 20,15.3640897 20,15.7791941 L20,18 L7.85149723e-13,18 L-1.03641471e-05,15.7793609 C-1.03641471e-05,15.3641778 0.129199332,14.9592857 0.3696952,14.6208499 C2.08503679,12.20695 5.29525464,11 10.0003488,11 Z"/>
</svg>
