<?xml version="1.0" encoding="UTF-8"?>
<svg width="68px" height="88px" viewBox="0 0 68 88" version="1.1" xmlns="http://www.w3.org/2000/svg" xmlns:xlink="http://www.w3.org/1999/xlink">
    <!-- Generator: Sketch 46.2 (44496) - http://www.bohemiancoding.com/sketch -->
    <title>Untitled</title>
    <desc>Created with Sketch.</desc>
    <defs>
        <polygon id="path-1" points="0.06 19.92 0.06 0.559 12.271 0.559 12.271 19.92"></polygon>
    </defs>
    <g id="Page-1" stroke="none" stroke-width="1" fill="none" fill-rule="evenodd">
        <g id="master_logo_onwhite">
            <g id="Group-4" transform="translate(0.000000, 68.000000)">
                <mask id="mask-2" fill="white">
                    <use xlink:href="#path-1"></use>
                </mask>
                <g id="Clip-2"></g>
                <path d="M5.756,17.676 C6.924,17.676 7.875,17.415 8.614,16.893 C9.351,16.37 9.72,15.586 9.72,14.541 C9.72,14.029 9.613,13.594 9.398,13.234 C9.183,12.877 8.906,12.575 8.568,12.329 C8.23,12.083 7.851,11.873 7.431,11.699 C7.011,11.525 6.596,11.366 6.186,11.223 C5.592,11.018 4.967,10.782 4.312,10.516 C3.656,10.25 3.057,9.912 2.514,9.501 C1.971,9.092 1.52,8.585 1.161,7.98 C0.803,7.376 0.624,6.643 0.624,5.783 C0.624,4.964 0.767,4.23 1.054,3.586 C1.341,2.941 1.735,2.393 2.237,1.941 C2.739,1.491 3.328,1.149 4.004,0.912 C4.68,0.677 5.407,0.559 6.186,0.559 C6.924,0.559 7.754,0.65 8.676,0.835 C9.597,1.019 10.498,1.439 11.38,2.096 C11.564,2.239 11.625,2.367 11.564,2.478 C11.503,2.592 11.451,2.689 11.411,2.771 L10.673,3.939 C10.57,4.083 10.447,4.145 10.304,4.123 C10.161,4.104 10.028,4.052 9.905,3.971 C9.208,3.561 8.593,3.268 8.061,3.094 C7.528,2.92 6.995,2.833 6.463,2.833 C6.012,2.833 5.587,2.884 5.187,2.986 C4.788,3.089 4.439,3.258 4.143,3.494 C3.845,3.729 3.61,4.037 3.436,4.415 C3.261,4.795 3.174,5.272 3.174,5.844 C3.174,6.255 3.282,6.613 3.497,6.92 C3.712,7.227 3.994,7.499 4.342,7.734 C4.691,7.971 5.08,8.18 5.51,8.364 C5.94,8.549 6.371,8.723 6.801,8.887 C7.477,9.152 8.143,9.425 8.798,9.701 C9.454,9.979 10.038,10.32 10.55,10.73 C11.062,11.141 11.477,11.643 11.794,12.236 C12.112,12.831 12.271,13.589 12.271,14.512 C12.271,15.352 12.112,16.104 11.794,16.77 C11.477,17.436 11.031,17.999 10.458,18.46 C9.884,18.921 9.198,19.279 8.399,19.535 C7.6,19.791 6.729,19.92 5.787,19.92 C4.619,19.92 3.528,19.721 2.514,19.32 C1.5,18.921 0.716,18.332 0.163,17.553 C-0.021,17.35 0.019,17.145 0.286,16.939 L1.423,15.894 C1.546,15.792 1.653,15.766 1.745,15.816 C1.838,15.868 1.955,15.966 2.099,16.109 C2.57,16.621 3.123,17.01 3.758,17.275 C4.393,17.543 5.059,17.676 5.756,17.676" id="Fill-1" fill="#0F171B" mask="url(#mask-2)"></path>
                <path d="M5.756,17.676 C6.924,17.676 7.875,17.415 8.614,16.893 C9.351,16.37 9.72,15.586 9.72,14.541 C9.72,14.029 9.613,13.594 9.398,13.234 C9.183,12.877 8.906,12.575 8.568,12.329 C8.23,12.083 7.851,11.873 7.431,11.699 C7.011,11.525 6.596,11.366 6.186,11.223 C5.592,11.018 4.967,10.782 4.312,10.516 C3.656,10.25 3.057,9.912 2.514,9.501 C1.971,9.092 1.52,8.585 1.161,7.98 C0.803,7.376 0.624,6.643 0.624,5.783 C0.624,4.964 0.767,4.23 1.054,3.586 C1.341,2.941 1.735,2.393 2.237,1.941 C2.739,1.491 3.328,1.149 4.004,0.912 C4.68,0.677 5.407,0.559 6.186,0.559 C6.924,0.559 7.754,0.65 8.676,0.835 C9.597,1.019 10.498,1.439 11.38,2.096 C11.564,2.239 11.625,2.367 11.564,2.478 C11.503,2.592 11.451,2.689 11.411,2.771 L10.673,3.939 C10.57,4.083 10.447,4.145 10.304,4.123 C10.161,4.104 10.028,4.052 9.905,3.971 C9.208,3.561 8.593,3.268 8.061,3.094 C7.528,2.92 6.995,2.833 6.463,2.833 C6.012,2.833 5.587,2.884 5.187,2.986 C4.788,3.089 4.439,3.258 4.143,3.494 C3.845,3.729 3.61,4.037 3.436,4.415 C3.261,4.795 3.174,5.272 3.174,5.844 C3.174,6.255 3.282,6.613 3.497,6.92 C3.712,7.227 3.994,7.499 4.342,7.734 C4.691,7.971 5.08,8.18 5.51,8.364 C5.94,8.549 6.371,8.723 6.801,8.887 C7.477,9.152 8.143,9.425 8.798,9.701 C9.454,9.979 10.038,10.32 10.55,10.73 C11.062,11.141 11.477,11.643 11.794,12.236 C12.112,12.831 12.271,13.589 12.271,14.512 C12.271,15.352 12.112,16.104 11.794,16.77 C11.477,17.436 11.031,17.999 10.458,18.46 C9.884,18.921 9.198,19.279 8.399,19.535 C7.6,19.791 6.729,19.92 5.787,19.92 C4.619,19.92 3.528,19.721 2.514,19.32 C1.5,18.921 0.716,18.332 0.163,17.553 C-0.021,17.35 0.019,17.145 0.286,16.939 L1.423,15.894 C1.546,15.792 1.653,15.766 1.745,15.816 C1.838,15.868 1.955,15.966 2.099,16.109 C2.57,16.621 3.123,17.01 3.758,17.275 C4.393,17.543 5.059,17.676 5.756,17.676 Z" id="Stroke-3" stroke="#0F171B" stroke-width="0.1" mask="url(#mask-2)"></path>
            </g>
            <path d="M26.069,73.844 C26.069,72.963 25.772,72.236 25.178,71.662 C24.583,71.09 23.795,70.803 22.812,70.803 C21.807,70.803 21.008,71.094 20.414,71.678 C19.82,72.262 19.523,72.984 19.523,73.844 L19.523,82.633 C19.523,83.556 19.804,84.299 20.368,84.861 C20.931,85.426 21.736,85.707 22.781,85.707 C23.805,85.707 24.609,85.426 25.193,84.861 C25.777,84.299 26.069,83.556 26.069,82.633 L26.069,73.844 Z M28.65,82.695 C28.65,83.535 28.501,84.277 28.205,84.924 C27.907,85.568 27.498,86.116 26.976,86.567 C26.453,87.019 25.839,87.361 25.132,87.596 C24.425,87.832 23.651,87.95 22.812,87.95 C21.971,87.95 21.198,87.838 20.491,87.612 C19.784,87.387 19.165,87.055 18.632,86.613 C18.099,86.174 17.684,85.625 17.387,84.969 C17.09,84.314 16.942,83.556 16.942,82.695 L16.942,73.783 C16.942,72.963 17.095,72.231 17.403,71.586 C17.71,70.94 18.125,70.393 18.647,69.941 C19.17,69.491 19.784,69.149 20.491,68.912 C21.198,68.676 21.961,68.559 22.781,68.559 C23.58,68.559 24.333,68.672 25.041,68.896 C25.746,69.123 26.371,69.455 26.914,69.895 C27.456,70.336 27.882,70.885 28.189,71.539 C28.497,72.195 28.65,72.943 28.65,73.783 L28.65,82.695 L28.65,82.695 Z" id="Fill-5" fill="#0F171B"></path>
            <path d="M26.069,73.844 C26.069,72.963 25.772,72.236 25.178,71.662 C24.583,71.09 23.795,70.803 22.812,70.803 C21.807,70.803 21.008,71.094 20.414,71.678 C19.82,72.262 19.523,72.984 19.523,73.844 L19.523,82.633 C19.523,83.556 19.804,84.299 20.368,84.861 C20.931,85.426 21.736,85.707 22.781,85.707 C23.805,85.707 24.609,85.426 25.193,84.861 C25.777,84.299 26.069,83.556 26.069,82.633 L26.069,73.844 Z M28.65,82.695 C28.65,83.535 28.501,84.277 28.205,84.924 C27.907,85.568 27.498,86.116 26.976,86.567 C26.453,87.019 25.839,87.361 25.132,87.596 C24.425,87.832 23.651,87.95 22.812,87.95 C21.971,87.95 21.198,87.838 20.491,87.612 C19.784,87.387 19.165,87.055 18.632,86.613 C18.099,86.174 17.684,85.625 17.387,84.969 C17.09,84.314 16.942,83.556 16.942,82.695 L16.942,73.783 C16.942,72.963 17.095,72.231 17.403,71.586 C17.71,70.94 18.125,70.393 18.647,69.941 C19.17,69.491 19.784,69.149 20.491,68.912 C21.198,68.676 21.961,68.559 22.781,68.559 C23.58,68.559 24.333,68.672 25.041,68.896 C25.746,69.123 26.371,69.455 26.914,69.895 C27.456,70.336 27.882,70.885 28.189,71.539 C28.497,72.195 28.65,72.943 28.65,73.783 L28.65,82.695 Z" id="Stroke-6" stroke="#0F171B" stroke-width="0.1"></path>
            <path d="M35.288,68.805 C35.534,68.805 35.708,68.851 35.81,68.942 C35.913,69.035 36.015,69.153 36.118,69.297 L43.278,82.48 C43.298,82.521 43.319,82.547 43.34,82.557 C43.36,82.567 43.37,82.553 43.37,82.511 L43.37,69.143 C43.37,68.918 43.484,68.805 43.713,68.805 L45.455,68.805 C45.704,68.805 45.829,68.908 45.829,69.111 L45.829,87.151 C45.829,87.418 45.761,87.586 45.627,87.658 C45.492,87.73 45.362,87.766 45.238,87.766 L44.056,87.766 C43.828,87.766 43.657,87.73 43.543,87.658 C43.429,87.586 43.33,87.47 43.248,87.305 L36.087,74.151 C36.025,74.09 35.995,74.09 35.995,74.151 L35.995,87.396 C35.995,87.644 35.882,87.766 35.657,87.766 L33.905,87.766 C33.659,87.766 33.536,87.653 33.536,87.428 L33.536,69.572 C33.536,69.307 33.572,69.111 33.644,68.988 C33.715,68.867 33.894,68.805 34.182,68.805 L35.288,68.805" id="Fill-8" fill="#0F171B"></path>
            <path d="M35.288,68.805 C35.534,68.805 35.708,68.851 35.81,68.942 C35.913,69.035 36.015,69.153 36.118,69.297 L43.278,82.48 C43.298,82.521 43.319,82.547 43.34,82.557 C43.36,82.567 43.37,82.553 43.37,82.511 L43.37,69.143 C43.37,68.918 43.484,68.805 43.713,68.805 L45.455,68.805 C45.704,68.805 45.829,68.908 45.829,69.111 L45.829,87.151 C45.829,87.418 45.761,87.586 45.627,87.658 C45.492,87.73 45.362,87.766 45.238,87.766 L44.056,87.766 C43.828,87.766 43.657,87.73 43.543,87.658 C43.429,87.586 43.33,87.47 43.248,87.305 L36.087,74.151 C36.025,74.09 35.995,74.09 35.995,74.151 L35.995,87.396 C35.995,87.644 35.882,87.766 35.657,87.766 L33.905,87.766 C33.659,87.766 33.536,87.653 33.536,87.428 L33.536,69.572 C33.536,69.307 33.572,69.111 33.644,68.988 C33.715,68.867 33.894,68.805 34.182,68.805 L35.288,68.805 Z" id="Stroke-9" stroke="#0F171B" stroke-width="0.1"></path>
            <path d="M66.876,87.766 L65.102,87.766 C64.873,87.766 64.76,87.654 64.76,87.428 L64.76,75.504 C64.76,75.463 64.744,75.437 64.714,75.427 C64.683,75.417 64.657,75.433 64.637,75.473 L63.35,79.068 L60.376,86.721 C60.335,86.783 60.275,86.869 60.193,86.982 C60.112,87.095 59.978,87.15 59.794,87.15 L58.6,87.15 C58.436,87.15 58.308,87.126 58.217,87.074 C58.125,87.023 58.048,86.916 57.987,86.752 L55.167,79.314 L53.85,75.566 C53.789,75.504 53.758,75.504 53.758,75.566 L53.758,87.396 C53.758,87.643 53.644,87.766 53.415,87.766 L51.673,87.766 C51.424,87.766 51.299,87.654 51.299,87.428 L51.299,69.389 C51.299,69 51.486,68.805 51.859,68.805 L53.072,68.805 C53.362,68.805 53.539,68.83 53.601,68.882 C53.663,68.933 53.746,69.061 53.85,69.266 L57.956,80.268 L59.121,83.648 C59.223,83.812 59.315,83.822 59.397,83.679 C59.601,83.126 59.8,82.547 59.994,81.941 C60.188,81.338 60.387,80.759 60.592,80.205 L64.666,69.234 C64.771,69.07 64.87,68.958 64.963,68.896 C65.056,68.836 65.206,68.805 65.414,68.805 L66.658,68.805 C66.886,68.805 67.037,68.855 67.109,68.958 C67.182,69.061 67.218,69.193 67.218,69.357 L67.218,87.396 C67.218,87.643 67.104,87.766 66.876,87.766" id="Fill-11" fill="#0F171B"></path>
            <path d="M66.876,87.766 L65.102,87.766 C64.873,87.766 64.76,87.654 64.76,87.428 L64.76,75.504 C64.76,75.463 64.744,75.437 64.714,75.427 C64.683,75.417 64.657,75.433 64.637,75.473 L63.35,79.068 L60.376,86.721 C60.335,86.783 60.275,86.869 60.193,86.982 C60.112,87.095 59.978,87.15 59.794,87.15 L58.6,87.15 C58.436,87.15 58.308,87.126 58.217,87.074 C58.125,87.023 58.048,86.916 57.987,86.752 L55.167,79.314 L53.85,75.566 C53.789,75.504 53.758,75.504 53.758,75.566 L53.758,87.396 C53.758,87.643 53.644,87.766 53.415,87.766 L51.673,87.766 C51.424,87.766 51.299,87.654 51.299,87.428 L51.299,69.389 C51.299,69 51.486,68.805 51.859,68.805 L53.072,68.805 C53.362,68.805 53.539,68.83 53.601,68.882 C53.663,68.933 53.746,69.061 53.85,69.266 L57.956,80.268 L59.121,83.648 C59.223,83.812 59.315,83.822 59.397,83.679 C59.601,83.126 59.8,82.547 59.994,81.941 C60.188,81.338 60.387,80.759 60.592,80.205 L64.666,69.234 C64.771,69.07 64.87,68.958 64.963,68.896 C65.056,68.836 65.206,68.805 65.414,68.805 L66.658,68.805 C66.886,68.805 67.037,68.855 67.109,68.958 C67.182,69.061 67.218,69.193 67.218,69.357 L67.218,87.396 C67.218,87.643 67.104,87.766 66.876,87.766 Z" id="Stroke-12" stroke="#0F171B" stroke-width="0.1"></path>
            <path d="M48.786,42.903 C48.894,42.622 48.96,42.318 48.96,41.999 C48.96,41.026 48.406,40.191 47.602,39.769 C48.137,39.955 48.709,40.061 49.307,40.061 C50.361,40.061 51.34,39.744 52.159,39.207 C51.172,40.56 50.04,41.798 48.786,42.903 M46.43,43.248 C45.741,43.248 45.18,42.688 45.18,41.999 C45.18,41.309 45.741,40.749 46.43,40.749 C47.119,40.749 47.68,41.309 47.68,41.999 C47.68,42.688 47.119,43.248 46.43,43.248 M36.934,48.361 C40.224,47.367 42.836,44.827 43.941,41.587 C43.919,41.721 43.9,41.857 43.9,41.999 C43.9,43.396 45.032,44.528 46.43,44.528 C46.543,44.528 46.651,44.509 46.76,44.496 C43.894,46.497 40.55,47.855 36.934,48.361 M33.815,46.898 L33.815,46.898 C33.815,46.898 33.814,46.898 33.813,46.898 C33.812,46.898 33.811,46.898 33.811,46.898 C33.801,46.898 33.793,46.899 33.783,46.899 C28.955,46.899 25.027,42.972 25.027,38.145 C25.027,33.316 28.955,29.388 33.783,29.388 C33.793,29.388 33.801,29.39 33.811,29.391 C33.811,29.391 33.812,29.391 33.813,29.391 C33.814,29.391 33.815,29.391 33.815,29.391 C33.824,29.39 33.833,29.388 33.843,29.388 C38.671,29.388 42.598,33.316 42.598,38.145 C42.598,42.972 38.671,46.899 33.843,46.899 C33.833,46.899 33.824,46.898 33.815,46.898 M20.865,44.496 C20.975,44.509 21.083,44.528 21.196,44.528 C22.593,44.528 23.726,43.396 23.726,41.999 C23.726,41.857 23.708,41.721 23.685,41.587 C24.791,44.827 27.401,47.367 30.692,48.361 C27.076,47.855 23.731,46.497 20.865,44.496 M19.946,41.999 C19.946,41.309 20.507,40.749 21.196,40.749 C21.885,40.749 22.446,41.309 22.446,41.999 C22.446,42.688 21.885,43.248 21.196,43.248 C20.507,43.248 19.946,42.688 19.946,41.999 M18.84,42.903 C17.585,41.798 16.454,40.56 15.467,39.207 C16.286,39.744 17.265,40.061 18.319,40.061 C18.917,40.061 19.489,39.955 20.024,39.769 C19.22,40.191 18.667,41.026 18.667,41.999 C18.667,42.318 18.731,42.622 18.84,42.903 M18.319,31.577 C20.128,31.577 21.599,33.049 21.599,34.858 C21.599,36.667 20.128,38.14 18.319,38.14 C16.509,38.14 15.038,36.667 15.038,34.858 C15.038,33.049 16.509,31.577 18.319,31.577 M13.117,34.858 C13.117,34.977 13.127,35.091 13.135,35.207 C12.394,33.576 11.84,31.844 11.5,30.037 C11.936,30.772 12.73,31.271 13.647,31.271 C14.131,31.271 14.578,31.126 14.961,30.888 C13.835,31.842 13.117,33.267 13.117,34.858 M14.87,28.767 C14.87,29.441 14.321,29.989 13.647,29.989 C12.972,29.989 12.423,29.441 12.423,28.767 C12.423,28.092 12.972,27.543 13.647,27.543 C14.321,27.543 14.87,28.092 14.87,28.767 M11.104,25.827 C11.104,22.771 11.713,19.856 12.81,17.191 C12.605,18.018 12.485,18.875 12.485,19.765 C12.485,22.409 13.452,24.824 15.044,26.689 C14.645,26.42 14.164,26.262 13.647,26.262 C12.472,26.262 11.493,27.075 11.223,28.167 C11.144,27.397 11.104,26.617 11.104,25.827 M15.774,27.461 C16.863,28.506 18.172,29.318 19.626,29.83 C19.208,29.72 18.771,29.656 18.319,29.656 C17.224,29.656 16.21,29.997 15.373,30.574 C15.849,30.118 16.15,29.479 16.15,28.767 C16.15,28.287 16.008,27.842 15.774,27.461 M23.491,40.945 C23.09,40.075 22.216,39.467 21.196,39.467 C20.95,39.467 20.718,39.513 20.493,39.58 C21.781,38.984 22.783,37.881 23.242,36.525 C23.162,37.054 23.107,37.592 23.107,38.145 C23.107,39.115 23.248,40.051 23.491,40.945 M20.226,30.022 C21.159,30.29 22.142,30.441 23.161,30.441 C24.726,30.441 26.208,30.096 27.546,29.491 C25.599,30.897 24.149,32.94 23.498,35.318 C23.51,35.166 23.52,35.013 23.52,34.858 C23.52,32.659 22.154,30.783 20.226,30.022 M23.161,11.009 C27.989,11.009 31.917,14.937 31.917,19.765 C31.917,24.592 27.989,28.52 23.161,28.52 C18.333,28.52 14.406,24.592 14.406,19.765 C14.406,14.937 18.333,11.009 23.161,11.009 M24.586,5.052 C24.021,5.517 23.654,6.21 23.654,6.999 C23.654,8.003 24.244,8.863 25.092,9.271 C24.465,9.157 23.822,9.088 23.161,9.088 C20.25,9.088 17.613,10.257 15.687,12.147 C17.993,9.09 21.053,6.636 24.586,5.052 M26.185,5.749 C26.875,5.749 27.434,6.31 27.434,6.999 C27.434,7.688 26.875,8.249 26.185,8.249 C25.495,8.249 24.935,7.688 24.935,6.999 C24.935,6.31 25.495,5.749 26.185,5.749 M32.908,3.091 C30.47,3.522 28.616,5.646 28.616,8.209 C28.616,9.361 28.996,10.423 29.631,11.287 C28.609,10.504 27.445,9.901 26.18,9.528 C26.181,9.528 26.183,9.528 26.185,9.528 C27.582,9.528 28.715,8.396 28.715,6.999 C28.715,5.602 27.582,4.468 26.185,4.468 C26.1,4.468 26.021,4.484 25.939,4.492 C28.124,3.678 30.467,3.192 32.908,3.091 M41.687,4.492 C41.605,4.484 41.525,4.468 41.441,4.468 C40.044,4.468 38.911,5.602 38.911,6.999 C38.911,8.396 40.044,9.528 41.441,9.528 C41.443,9.528 41.445,9.528 41.446,9.528 C40.18,9.901 39.017,10.504 37.995,11.287 C38.63,10.423 39.01,9.361 39.01,8.209 C39.01,5.646 37.156,3.522 34.718,3.091 C37.159,3.192 39.502,3.678 41.687,4.492 M42.691,6.999 C42.691,7.688 42.131,8.249 41.441,8.249 C40.752,8.249 40.192,7.688 40.192,6.999 C40.192,6.31 40.752,5.749 41.441,5.749 C42.131,5.749 42.691,6.31 42.691,6.999 M51.939,12.147 C50.013,10.257 47.376,9.088 44.464,9.088 C43.804,9.088 43.161,9.157 42.533,9.271 C43.382,8.863 43.972,8.003 43.972,6.999 C43.972,6.21 43.604,5.517 43.041,5.052 C46.573,6.636 49.633,9.09 51.939,12.147 M33.811,13.409 L33.811,13.41 C33.811,13.41 33.812,13.409 33.813,13.409 C33.814,13.409 33.815,13.41 33.815,13.41 L33.815,13.409 C34.816,13.408 35.748,13.121 36.539,12.629 C34.923,14.424 33.913,16.767 33.813,19.347 C33.713,16.767 32.703,14.424 31.087,12.629 C31.879,13.121 32.81,13.408 33.811,13.409 M33.813,11.489 C32.006,11.486 30.537,10.017 30.537,8.209 C30.537,6.401 32.006,4.93 33.813,4.928 C35.62,4.93 37.089,6.401 37.089,8.209 C37.089,10.017 35.62,11.486 33.813,11.489 M33.813,27.468 C33.803,27.468 33.793,27.468 33.783,27.468 C32.218,27.468 30.737,27.813 29.398,28.417 C31.966,26.563 33.669,23.599 33.813,20.225 C33.958,23.599 35.66,26.563 38.228,28.417 C36.889,27.813 35.407,27.468 33.843,27.468 C33.833,27.468 33.823,27.468 33.813,27.468 M44.464,28.52 C39.637,28.52 35.709,24.592 35.709,19.765 C35.709,14.937 39.637,11.009 44.464,11.009 C49.292,11.009 53.22,14.937 53.22,19.765 C53.22,24.592 49.292,28.52 44.464,28.52 M56.522,25.827 C56.522,26.617 56.481,27.397 56.403,28.167 C56.133,27.075 55.154,26.262 53.979,26.262 C53.462,26.262 52.981,26.42 52.583,26.689 C54.174,24.824 55.141,22.409 55.141,19.765 C55.141,18.875 55.02,18.018 54.816,17.191 C55.913,19.856 56.522,22.771 56.522,25.827 M52.756,28.767 C52.756,28.092 53.305,27.543 53.979,27.543 C54.654,27.543 55.203,28.092 55.203,28.767 C55.203,29.441 54.654,29.989 53.979,29.989 C53.305,29.989 52.756,29.441 52.756,28.767 M54.491,35.207 C54.499,35.091 54.509,34.977 54.509,34.858 C54.509,33.267 53.792,31.842 52.664,30.888 C53.047,31.126 53.495,31.271 53.979,31.271 C54.896,31.271 55.689,30.772 56.126,30.037 C55.786,31.844 55.232,33.576 54.491,35.207 M52.254,30.574 C51.417,29.997 50.402,29.656 49.307,29.656 C48.855,29.656 48.418,29.72 48,29.83 C49.454,29.318 50.763,28.506 51.852,27.461 C51.618,27.842 51.476,28.287 51.476,28.767 C51.476,29.479 51.777,30.118 52.254,30.574 M46.026,34.858 C46.026,33.049 47.498,31.577 49.307,31.577 C51.116,31.577 52.588,33.049 52.588,34.858 C52.588,36.667 51.116,38.14 49.307,38.14 C47.498,38.14 46.026,36.667 46.026,34.858 M44.384,36.525 C44.843,37.881 45.845,38.984 47.133,39.58 C46.908,39.513 46.675,39.467 46.43,39.467 C45.409,39.467 44.535,40.075 44.135,40.945 C44.378,40.051 44.519,39.115 44.519,38.145 C44.519,37.592 44.464,37.054 44.384,36.525 M44.129,35.318 C43.477,32.94 42.027,30.897 40.079,29.491 C41.418,30.096 42.9,30.441 44.464,30.441 C45.484,30.441 46.466,30.29 47.4,30.022 C45.472,30.783 44.106,32.659 44.106,34.858 C44.106,35.013 44.116,35.166 44.129,35.318 M59.019,25.827 C59.019,11.919 47.718,0.601 33.815,0.571 C33.815,0.571 33.814,0.571 33.813,0.571 C33.812,0.571 33.811,0.571 33.811,0.571 C19.908,0.601 8.606,11.919 8.606,25.827 C8.606,39.736 19.908,51.055 33.811,51.084 C33.811,51.084 33.812,51.084 33.813,51.084 C33.814,51.084 33.815,51.084 33.815,51.084 C47.718,51.055 59.019,39.736 59.019,25.827" id="Fill-14" fill="#0F171B"></path>
            <path d="M48.786,42.903 C48.894,42.622 48.96,42.318 48.96,41.999 C48.96,41.026 48.406,40.191 47.602,39.769 C48.137,39.955 48.709,40.061 49.307,40.061 C50.361,40.061 51.34,39.744 52.159,39.207 C51.172,40.56 50.04,41.798 48.786,42.903 Z M46.43,43.248 C45.741,43.248 45.18,42.688 45.18,41.999 C45.18,41.309 45.741,40.749 46.43,40.749 C47.119,40.749 47.68,41.309 47.68,41.999 C47.68,42.688 47.119,43.248 46.43,43.248 Z M36.934,48.361 C40.224,47.367 42.836,44.827 43.941,41.587 C43.919,41.721 43.9,41.857 43.9,41.999 C43.9,43.396 45.032,44.528 46.43,44.528 C46.543,44.528 46.651,44.509 46.76,44.496 C43.894,46.497 40.55,47.855 36.934,48.361 Z M33.815,46.898 L33.815,46.898 C33.815,46.898 33.814,46.898 33.813,46.898 C33.812,46.898 33.811,46.898 33.811,46.898 C33.801,46.898 33.793,46.899 33.783,46.899 C28.955,46.899 25.027,42.972 25.027,38.145 C25.027,33.316 28.955,29.388 33.783,29.388 C33.793,29.388 33.801,29.39 33.811,29.391 C33.811,29.391 33.812,29.391 33.813,29.391 C33.814,29.391 33.815,29.391 33.815,29.391 C33.824,29.39 33.833,29.388 33.843,29.388 C38.671,29.388 42.598,33.316 42.598,38.145 C42.598,42.972 38.671,46.899 33.843,46.899 C33.833,46.899 33.824,46.898 33.815,46.898 Z M20.865,44.496 C20.975,44.509 21.083,44.528 21.196,44.528 C22.593,44.528 23.726,43.396 23.726,41.999 C23.726,41.857 23.708,41.721 23.685,41.587 C24.791,44.827 27.401,47.367 30.692,48.361 C27.076,47.855 23.731,46.497 20.865,44.496 Z M19.946,41.999 C19.946,41.309 20.507,40.749 21.196,40.749 C21.885,40.749 22.446,41.309 22.446,41.999 C22.446,42.688 21.885,43.248 21.196,43.248 C20.507,43.248 19.946,42.688 19.946,41.999 Z M18.84,42.903 C17.585,41.798 16.454,40.56 15.467,39.207 C16.286,39.744 17.265,40.061 18.319,40.061 C18.917,40.061 19.489,39.955 20.024,39.769 C19.22,40.191 18.667,41.026 18.667,41.999 C18.667,42.318 18.731,42.622 18.84,42.903 Z M18.319,31.577 C20.128,31.577 21.599,33.049 21.599,34.858 C21.599,36.667 20.128,38.14 18.319,38.14 C16.509,38.14 15.038,36.667 15.038,34.858 C15.038,33.049 16.509,31.577 18.319,31.577 Z M13.117,34.858 C13.117,34.977 13.127,35.091 13.135,35.207 C12.394,33.576 11.84,31.844 11.5,30.037 C11.936,30.772 12.73,31.271 13.647,31.271 C14.131,31.271 14.578,31.126 14.961,30.888 C13.835,31.842 13.117,33.267 13.117,34.858 Z M14.87,28.767 C14.87,29.441 14.321,29.989 13.647,29.989 C12.972,29.989 12.423,29.441 12.423,28.767 C12.423,28.092 12.972,27.543 13.647,27.543 C14.321,27.543 14.87,28.092 14.87,28.767 Z M11.104,25.827 C11.104,22.771 11.713,19.856 12.81,17.191 C12.605,18.018 12.485,18.875 12.485,19.765 C12.485,22.409 13.452,24.824 15.044,26.689 C14.645,26.42 14.164,26.262 13.647,26.262 C12.472,26.262 11.493,27.075 11.223,28.167 C11.144,27.397 11.104,26.617 11.104,25.827 Z M15.774,27.461 C16.863,28.506 18.172,29.318 19.626,29.83 C19.208,29.72 18.771,29.656 18.319,29.656 C17.224,29.656 16.21,29.997 15.373,30.574 C15.849,30.118 16.15,29.479 16.15,28.767 C16.15,28.287 16.008,27.842 15.774,27.461 Z M23.491,40.945 C23.09,40.075 22.216,39.467 21.196,39.467 C20.95,39.467 20.718,39.513 20.493,39.58 C21.781,38.984 22.783,37.881 23.242,36.525 C23.162,37.054 23.107,37.592 23.107,38.145 C23.107,39.115 23.248,40.051 23.491,40.945 Z M20.226,30.022 C21.159,30.29 22.142,30.441 23.161,30.441 C24.726,30.441 26.208,30.096 27.546,29.491 C25.599,30.897 24.149,32.94 23.498,35.318 C23.51,35.166 23.52,35.013 23.52,34.858 C23.52,32.659 22.154,30.783 20.226,30.022 Z M23.161,11.009 C27.989,11.009 31.917,14.937 31.917,19.765 C31.917,24.592 27.989,28.52 23.161,28.52 C18.333,28.52 14.406,24.592 14.406,19.765 C14.406,14.937 18.333,11.009 23.161,11.009 Z M24.586,5.052 C24.021,5.517 23.654,6.21 23.654,6.999 C23.654,8.003 24.244,8.863 25.092,9.271 C24.465,9.157 23.822,9.088 23.161,9.088 C20.25,9.088 17.613,10.257 15.687,12.147 C17.993,9.09 21.053,6.636 24.586,5.052 Z M26.185,5.749 C26.875,5.749 27.434,6.31 27.434,6.999 C27.434,7.688 26.875,8.249 26.185,8.249 C25.495,8.249 24.935,7.688 24.935,6.999 C24.935,6.31 25.495,5.749 26.185,5.749 Z M32.908,3.091 C30.47,3.522 28.616,5.646 28.616,8.209 C28.616,9.361 28.996,10.423 29.631,11.287 C28.609,10.504 27.445,9.901 26.18,9.528 C26.181,9.528 26.183,9.528 26.185,9.528 C27.582,9.528 28.715,8.396 28.715,6.999 C28.715,5.602 27.582,4.468 26.185,4.468 C26.1,4.468 26.021,4.484 25.939,4.492 C28.124,3.678 30.467,3.192 32.908,3.091 Z M41.687,4.492 C41.605,4.484 41.525,4.468 41.441,4.468 C40.044,4.468 38.911,5.602 38.911,6.999 C38.911,8.396 40.044,9.528 41.441,9.528 C41.443,9.528 41.445,9.528 41.446,9.528 C40.18,9.901 39.017,10.504 37.995,11.287 C38.63,10.423 39.01,9.361 39.01,8.209 C39.01,5.646 37.156,3.522 34.718,3.091 C37.159,3.192 39.502,3.678 41.687,4.492 Z M42.691,6.999 C42.691,7.688 42.131,8.249 41.441,8.249 C40.752,8.249 40.192,7.688 40.192,6.999 C40.192,6.31 40.752,5.749 41.441,5.749 C42.131,5.749 42.691,6.31 42.691,6.999 Z M51.939,12.147 C50.013,10.257 47.376,9.088 44.464,9.088 C43.804,9.088 43.161,9.157 42.533,9.271 C43.382,8.863 43.972,8.003 43.972,6.999 C43.972,6.21 43.604,5.517 43.041,5.052 C46.573,6.636 49.633,9.09 51.939,12.147 Z M33.811,13.409 L33.811,13.41 C33.811,13.41 33.812,13.409 33.813,13.409 C33.814,13.409 33.815,13.41 33.815,13.41 L33.815,13.409 C34.816,13.408 35.748,13.121 36.539,12.629 C34.923,14.424 33.913,16.767 33.813,19.347 C33.713,16.767 32.703,14.424 31.087,12.629 C31.879,13.121 32.81,13.408 33.811,13.409 Z M33.813,11.489 C32.006,11.486 30.537,10.017 30.537,8.209 C30.537,6.401 32.006,4.93 33.813,4.928 C35.62,4.93 37.089,6.401 37.089,8.209 C37.089,10.017 35.62,11.486 33.813,11.489 Z M33.813,27.468 C33.803,27.468 33.793,27.468 33.783,27.468 C32.218,27.468 30.737,27.813 29.398,28.417 C31.966,26.563 33.669,23.599 33.813,20.225 C33.958,23.599 35.66,26.563 38.228,28.417 C36.889,27.813 35.407,27.468 33.843,27.468 C33.833,27.468 33.823,27.468 33.813,27.468 Z M44.464,28.52 C39.637,28.52 35.709,24.592 35.709,19.765 C35.709,14.937 39.637,11.009 44.464,11.009 C49.292,11.009 53.22,14.937 53.22,19.765 C53.22,24.592 49.292,28.52 44.464,28.52 Z M56.522,25.827 C56.522,26.617 56.481,27.397 56.403,28.167 C56.133,27.075 55.154,26.262 53.979,26.262 C53.462,26.262 52.981,26.42 52.583,26.689 C54.174,24.824 55.141,22.409 55.141,19.765 C55.141,18.875 55.02,18.018 54.816,17.191 C55.913,19.856 56.522,22.771 56.522,25.827 Z M52.756,28.767 C52.756,28.092 53.305,27.543 53.979,27.543 C54.654,27.543 55.203,28.092 55.203,28.767 C55.203,29.441 54.654,29.989 53.979,29.989 C53.305,29.989 52.756,29.441 52.756,28.767 Z M54.491,35.207 C54.499,35.091 54.509,34.977 54.509,34.858 C54.509,33.267 53.792,31.842 52.664,30.888 C53.047,31.126 53.495,31.271 53.979,31.271 C54.896,31.271 55.689,30.772 56.126,30.037 C55.786,31.844 55.232,33.576 54.491,35.207 Z M52.254,30.574 C51.417,29.997 50.402,29.656 49.307,29.656 C48.855,29.656 48.418,29.72 48,29.83 C49.454,29.318 50.763,28.506 51.852,27.461 C51.618,27.842 51.476,28.287 51.476,28.767 C51.476,29.479 51.777,30.118 52.254,30.574 Z M46.026,34.858 C46.026,33.049 47.498,31.577 49.307,31.577 C51.116,31.577 52.588,33.049 52.588,34.858 C52.588,36.667 51.116,38.14 49.307,38.14 C47.498,38.14 46.026,36.667 46.026,34.858 Z M44.384,36.525 C44.843,37.881 45.845,38.984 47.133,39.58 C46.908,39.513 46.675,39.467 46.43,39.467 C45.409,39.467 44.535,40.075 44.135,40.945 C44.378,40.051 44.519,39.115 44.519,38.145 C44.519,37.592 44.464,37.054 44.384,36.525 Z M44.129,35.318 C43.477,32.94 42.027,30.897 40.079,29.491 C41.418,30.096 42.9,30.441 44.464,30.441 C45.484,30.441 46.466,30.29 47.4,30.022 C45.472,30.783 44.106,32.659 44.106,34.858 C44.106,35.013 44.116,35.166 44.129,35.318 Z M59.019,25.827 C59.019,11.919 47.718,0.601 33.815,0.571 C33.815,0.571 33.814,0.571 33.813,0.571 C33.812,0.571 33.811,0.571 33.811,0.571 C19.908,0.601 8.606,11.919 8.606,25.827 C8.606,39.736 19.908,51.055 33.811,51.084 C33.811,51.084 33.812,51.084 33.813,51.084 C33.814,51.084 33.815,51.084 33.815,51.084 C47.718,51.055 59.019,39.736 59.019,25.827 Z" id="Stroke-15" stroke="#0F171B" stroke-width="0.1"></path>
        </g>
    </g>
</svg>