<svg id="Слой_1" xmlns="http://www.w3.org/2000/svg" viewBox="0 0 319 149"><style>.st0{fill:#fff}</style><path class="st0" d="M57.5 32c-24.4 0-44.2 19.8-44.2 44.2s19.8 44.2 44.2 44.2 44.2-19.8 44.2-44.2S81.9 32 57.5 32zm32.1 49.3c0-1 .8-1.8 1.8-1.8s1.8.8 1.8 1.8-.8 1.8-1.8 1.8-1.8-.8-1.8-1.8zM52.4 46.2c0-2.8 2.3-5.1 5.1-5.1s5.1 2.3 5.1 5.1-2.3 5.1-5.1 5.1c-2.8-.1-5.1-2.4-5.1-5.1zm5.1 8.8c1.6 0 3.1-.4 4.3-1.1-2.2 2.5-3.8 5.6-4.3 9-.6-3.4-2.1-6.5-4.3-9 1.3.7 2.7 1.1 4.3 1.1zm0 13.9c.8 4.7 3.3 8.8 7 11.5-2.1-.9-4.5-1.4-7-1.4s-4.8.5-7 1.4c3.6-2.8 6.2-6.9 7-11.5zm0 14.6c7.5 0 13.6 6.1 13.6 13.6s-6.1 13.6-13.6 13.6-13.6-6.1-13.6-13.6S50 83.5 57.5 83.5zm-17.4 8.3v-.6c0-3.1-1.7-5.9-4.1-7.5 1.2.2 2.3.4 3.6.4 2.5 0 4.8-.5 7-1.4-3.1 2.2-5.3 5.4-6.5 9.1zm28.3-9.2c2.1.9 4.5 1.4 7 1.4 1.2 0 2.4-.1 3.6-.4-2.5 1.6-4.1 4.3-4.1 7.5v.6c-1.2-3.6-3.5-6.8-6.5-9.1zm19 .5c-1.1-.5-2.4-.8-3.7-.8h-.6c1.6-.7 3-1.7 4.3-2.8-.3.5-.4 1.1-.4 1.8 0 .6.1 1.3.4 1.8zm-12-3.6c-7.5 0-13.6-6.1-13.6-13.6s6.1-13.6 13.6-13.6S89 58.4 89 65.9s-6.1 13.6-13.6 13.6zM64.7 51.2c1-1.4 1.6-3.2 1.6-5.1V46c.7 1.4 2 2.3 3.6 2.5-1.9.7-3.6 1.6-5.2 2.7zm5.6-5.3c-1 0-1.8-.8-1.8-1.8s.8-1.8 1.8-1.8 1.8.8 1.8 1.8-.8 1.8-1.8 1.8zm-4.4-2.4c-.8-2.7-2.9-4.8-5.5-5.7 3.3.2 6.4.9 9.4 1.9-2 .2-3.6 1.8-3.9 3.8zm-16.8-.1c-.3-2-1.9-3.5-3.9-3.7 3-1 6.1-1.7 9.4-1.9-2.7.9-4.7 3-5.5 5.6zm-4.4-1c1 0 1.8.8 1.8 1.8s-.8 1.8-1.8 1.8-1.8-.8-1.8-1.8.8-1.8 1.8-1.8zm3.9 3.8c0 1.8.6 3.5 1.5 5-1.5-1.1-3.3-2-5.1-2.6 1.6-.2 2.9-1.1 3.6-2.4zm4.6 19.7c0 7.5-6.1 13.6-13.6 13.6S26 73.4 26 65.9s6.1-13.6 13.6-13.6 13.6 6.1 13.6 13.6zM27.6 79.5c1.3 1.1 2.8 2.1 4.3 2.8h-.6c-1.3 0-2.6.3-3.7.8.3-.6.4-1.2.4-1.9 0-.6-.1-1.2-.4-1.7zm-4 3.6c-1 0-1.8-.8-1.8-1.8s.8-1.8 1.8-1.8 1.8.8 1.8 1.8c-.1 1-.9 1.8-1.8 1.8zm0 2.6c.3 0 .6 0 .9-.1-1.2 1.5-2 3.4-2 5.5 0 .6.1 1.1.2 1.7-1.5-3.1-2.5-6.3-3.1-9.8.6 1.6 2.1 2.7 4 2.7zm7.7.4c2.8 0 5.1 2.3 5.1 5.1s-2.3 5.1-5.1 5.1-5.1-2.3-5.1-5.1 2.3-5.1 5.1-5.1zm8.2 8.3c-.1.9-.2 1.8-.2 2.7 0 1.4.2 2.7.4 3.9-.7-1.2-2.1-2-3.7-2-.2 0-.4 0-.7.1 1.9-1.1 3.4-2.7 4.2-4.7zm-3.5 7.2c1 0 1.8.8 1.8 1.8s-.8 1.8-1.8 1.8-1.8-.8-1.8-1.8.8-1.8 1.8-1.8zm0 6.2c2.4 0 4.4-2 4.4-4.4 2 5.4 6.4 9.5 11.9 11.2-6.3-.9-12.2-3.2-17.1-6.8h.8zm38.8-5.2c0 .3-.1.5-.1.8 0 2.4 2 4.4 4.4 4.4h.6c-5 3.5-10.8 5.9-17.1 6.7 5.8-1.7 10.4-6.2 12.2-11.9zm4.4 2.6c-1 0-1.8-.8-1.8-1.8s.8-1.8 1.8-1.8 1.8.8 1.8 1.8-.8 1.8-1.8 1.8zm0-6.2c-1.9 0-3.5 1.2-4.1 2.8.4-1.5.6-3 .6-4.7 0-.9-.1-1.8-.2-2.7.8 2 2.3 3.6 4.1 4.6h-.4zm-.6-7.9c0-2.8 2.3-5.1 5.1-5.1s5.1 2.3 5.1 5.1-2.3 5.1-5.1 5.1-5.1-2.3-5.1-5.1zm12.8-5.4c1.8 0 3.4-1.1 4.1-2.6-.6 3.4-1.7 6.7-3.1 9.8.1-.5.2-1.1.2-1.7 0-2.1-.7-4-2-5.5h.8zm0-8.9c-.7 0-1.3.2-1.9.4 2.5-3.1 4.1-7.1 4.1-11.4 0-1.8-.3-3.5-.7-5.1 2.1 4.7 3.3 10 3.3 15.5 0 1.5-.1 3-.3 4.4-.4-2.1-2.2-3.8-4.5-3.8zm-3-23.6c-3.3-3.4-7.9-5.5-13-5.5-1 0-1.9.1-2.8.2 1.3-.8 2.2-2.2 2.2-3.8 0-1.1-.4-2.1-1.1-2.9 5.8 2.8 10.9 6.9 14.7 12zM41.3 41.3c-.7.8-1.1 1.8-1.1 2.9 0 1.6.9 3 2.2 3.8-.9-.1-1.9-.2-2.8-.2-5.1 0-9.7 2.1-13 5.5 3.8-5.2 8.9-9.3 14.7-12zM22.2 60.8c-.5 1.6-.7 3.3-.7 5.1 0 4.3 1.5 8.3 4.1 11.4-.6-.3-1.2-.4-1.9-.4-2.3 0-4.1 1.7-4.4 3.9-.2-1.5-.3-2.9-.3-4.4-.1-5.6 1.1-10.9 3.2-15.6zm3.2 36.9c1.6 1.4 3.6 2.2 5.9 2.2.8 0 1.5-.1 2.2-.3-1.2.8-2 2.2-2 3.7 0 .6.1 1.2.4 1.8-2.4-2.1-4.6-4.6-6.5-7.4zm57.9 7.2c.2-.5.3-1 .3-1.5 0-1.5-.7-2.8-1.9-3.6.6.1 1.3.2 2 .2 2.3 0 4.3-.8 5.9-2.2-1.8 2.6-3.9 5-6.3 7.1zM141 96.1c3.1 0 5.7-.7 7.7-2.1 2-1.4 3-3.5 3-6.3 0-1.4-.3-2.5-.9-3.5-.6-1-1.3-1.8-2.2-2.4-.9-.7-1.9-1.2-3-1.7s-2.2-.9-3.3-1.3c-1.6-.5-3.3-1.2-5-1.9-1.8-.7-3.4-1.6-4.8-2.7-1.5-1.1-2.7-2.5-3.6-4.1-1-1.6-1.4-3.6-1.4-5.9 0-2.2.4-4.2 1.2-5.9.8-1.7 1.8-3.2 3.2-4.4 1.3-1.2 2.9-2.1 4.7-2.8 1.8-.6 3.8-.9 5.8-.9s4.2.2 6.7.7c2.5.5 4.9 1.6 7.2 3.4.5.4.7.7.5 1-.2.3-.3.6-.4.8l-2 3.1c-.3.4-.6.5-1 .5-.4-.1-.7-.2-1.1-.4-1.9-1.1-3.5-1.9-4.9-2.3-1.4-.5-2.9-.7-4.3-.7-1.2 0-2.3.1-3.4.4-1.1.3-2 .7-2.8 1.4-.8.6-1.4 1.5-1.9 2.5s-.7 2.3-.7 3.8c0 1.1.3 2.1.9 2.9.6.8 1.3 1.6 2.3 2.2.9.6 2 1.2 3.1 1.7 1.2.5 2.3 1 3.5 1.4 1.8.7 3.6 1.4 5.3 2.2 1.8.7 3.3 1.7 4.7 2.8 1.4 1.1 2.5 2.4 3.3 4 .8 1.6 1.3 3.6 1.3 6.1 0 2.2-.4 4.3-1.3 6-.9 1.8-2 3.3-3.6 4.5-1.5 1.2-3.4 2.2-5.5 2.9-2.1.7-4.5 1-7 1-3.1 0-6-.5-8.8-1.6-2.7-1.1-4.8-2.6-6.3-4.7-.5-.5-.4-1.1.3-1.6l3-2.8c.3-.3.6-.3.9-.2.2.1.6.4.9.8 1.3 1.4 2.7 2.4 4.4 3.1 1.6.6 3.4 1 5.3 1M202.3 88.1c0 2.2-.4 4.2-1.2 6-.8 1.7-1.9 3.2-3.3 4.4-1.4 1.2-3 2.1-4.9 2.8-1.9.6-4 .9-6.2.9-2.3 0-4.3-.3-6.2-.9-1.9-.6-3.6-1.5-5-2.7-1.4-1.2-2.5-2.6-3.3-4.4-.8-1.8-1.2-3.8-1.2-6.1V64.2c0-2.2.4-4.2 1.2-5.9.8-1.7 1.9-3.2 3.3-4.4 1.4-1.2 3-2.1 4.9-2.8s3.9-.9 6.1-.9c2.1 0 4.2.3 6.1.9 1.9.6 3.6 1.5 5 2.7 1.5 1.2 2.6 2.6 3.4 4.4.8 1.8 1.2 3.8 1.2 6v23.9zm-6.9-23.7c0-2.4-.8-4.3-2.4-5.8-1.6-1.5-3.7-2.3-6.3-2.3-2.7 0-4.8.8-6.4 2.3-1.6 1.6-2.4 3.5-2.4 5.8v23.5c0 2.5.8 4.5 2.3 6 1.5 1.5 3.7 2.3 6.5 2.3 2.7 0 4.9-.8 6.5-2.3 1.6-1.5 2.3-3.5 2.3-6V64.4zM220.1 50.9c.7 0 1.1.1 1.4.4.3.2.5.6.8.9l19.2 35.3c.1.1.1.2.2.2s.1 0 .1-.1V51.8c0-.6.3-.9.9-.9h4.7c.7 0 1 .3 1 .8V100c0 .7-.2 1.2-.5 1.4-.4.2-.7.3-1 .3h-3.2c-.6 0-1.1-.1-1.4-.3-.3-.2-.6-.5-.8-.9l-19.2-35.2c-.2-.2-.2-.2-.2 0v35.5c0 .7-.3 1-.9 1h-4.7c-.7 0-1-.3-1-.9V53c0-.7.1-1.2.3-1.6.2-.3.7-.5 1.4-.5h2.9zM303.9 101.7h-4.8c-.6 0-.9-.3-.9-.9v-32c0-.1 0-.2-.1-.2s-.2 0-.2.1l-3.4 9.6-8 20.5c-.1.2-.3.4-.5.7-.2.3-.6.4-1.1.4h-3.2c-.4 0-.8-.1-1-.2-.2-.1-.5-.4-.6-.9L272.5 79 269 69c-.2-.2-.2-.2-.2 0v31.7c0 .7-.3 1-.9 1h-4.7c-.7 0-1-.3-1-.9V52.5c0-1 .5-1.6 1.5-1.6h3.2c.8 0 1.3.1 1.4.2.2.1.4.5.7 1l11 29.5 3.1 9.1c.3.4.5.5.7.1.5-1.5 1.1-3 1.6-4.7.5-1.6 1.1-3.2 1.6-4.7L298 52c.3-.4.5-.7.8-.9.3-.2.7-.2 1.2-.2h3.3c.6 0 1 .1 1.2.4.2.3.3.6.3 1.1v48.3c0 .7-.3 1-.9 1"/></svg>